<svg xmlns="http://www.w3.org/2000/svg" width="50.062" height="44" viewBox="0 0 50.062 44">
  <metadata><?xpacket begin="﻿" id="W5M0MpCehiHzreSzNTczkc9d"?>
<x:xmpmeta xmlns:x="adobe:ns:meta/" x:xmptk="Adobe XMP Core 5.6-c138 79.159824, 2016/09/14-01:09:01        ">
   <rdf:RDF xmlns:rdf="http://www.w3.org/1999/02/22-rdf-syntax-ns#">
      <rdf:Description rdf:about=""/>
   </rdf:RDF>
</x:xmpmeta>
                                                                                                    
                                                                                                    
                                                                                                    
                                                                                                    
                                                                                                    
                                                                                                    
                                                                                                    
                                                                                                    
                                                                                                    
                                                                                                    
                                                                                                    
                                                                                                    
                                                                                                    
                                                                                                    
                                                                                                    
                                                                                                    
                                                                                                    
                                                                                                    
                                                                                                    
                                                                                                    
                           
<?xpacket end="w"?></metadata>
<defs>
    <style>
      .cls-1 {
        fill-rule: evenodd;
      }
    </style>
  </defs>
  <path id="_3" data-name="3" class="cls-1" d="M470.082,2612.06a3.551,3.551,0,1,0,3.644,3.55A3.6,3.6,0,0,0,470.082,2612.06Zm-11.44,6.2a31.014,31.014,0,0,1,8.771,2.13,1.794,1.794,0,0,1,.592.42,2.8,2.8,0,0,1,2.04.53,1.954,1.954,0,0,1,.684.13,21.926,21.926,0,0,1,7.806,5c1.552,1.6-1.11,3.81-2.651,2.22a16.8,16.8,0,0,0-5.119-3.48q-0.126,2.73-.254,5.46a0.439,0.439,0,0,1,.062.07c2.782,4.08,3.326,8.39.292,12.5-1.3,1.77-4.34.07-3.021-1.72a6.487,6.487,0,0,0,.554-7.67,3.039,3.039,0,0,1-1.083.05,52.1,52.1,0,0,1-6.834,8.1c-1.619,1.54-3.874-1.06-2.27-2.59a49.645,49.645,0,0,0,7.048-8.63q0.174-3.72.347-7.44a28.74,28.74,0,0,0-7.575-1.73C455.792,2621.32,456.412,2617.97,458.642,2618.26ZM432,2625.09a2.681,2.681,0,0,1,.3-0.95,4.645,4.645,0,0,1,.408-1.33c1.145-2.4,2.195-4.83,3.168-7.29a11.3,11.3,0,0,0-2.454,2.02c-2.276,2.45-5.974-1.17-3.711-3.61a14.36,14.36,0,0,1,8.444-4.63,3.984,3.984,0,0,1,1.035,0,4.263,4.263,0,0,1,4.533.46c4.081,1.85,7.807,4.33,11.81,6.33,3.012,1.5.064,5.73-2.913,4.24-3.007-1.49-5.838-3.33-8.824-4.87q-1.9,5.115-4.237,10.06c3.968,3.95,5.985,8.96,8.018,14.29,1.18,3.09-3.892,4.41-5.058,1.35-1.519-3.97-2.983-8.14-5.85-11.32-0.5,3.94-1.046,7.88-1.772,11.79-0.6,3.24-5.657,1.86-5.057-1.36C430.764,2635.24,431.391,2630.17,432,2625.09Zm12.033-25.08a4.252,4.252,0,1,0,4.365,4.25A4.306,4.306,0,0,0,444.028,2600.01Z" transform="translate(-428.969 -2600)"/>
</svg>
