<svg xmlns="http://www.w3.org/2000/svg" width="33" height="50" viewBox="0 0 33 50">
  <metadata><?xpacket begin="﻿" id="W5M0MpCehiHzreSzNTczkc9d"?>
<x:xmpmeta xmlns:x="adobe:ns:meta/" x:xmptk="Adobe XMP Core 5.6-c138 79.159824, 2016/09/14-01:09:01        ">
   <rdf:RDF xmlns:rdf="http://www.w3.org/1999/02/22-rdf-syntax-ns#">
      <rdf:Description rdf:about=""/>
   </rdf:RDF>
</x:xmpmeta>
                                                                                                    
                                                                                                    
                                                                                                    
                                                                                                    
                                                                                                    
                                                                                                    
                                                                                                    
                                                                                                    
                                                                                                    
                                                                                                    
                                                                                                    
                                                                                                    
                                                                                                    
                                                                                                    
                                                                                                    
                                                                                                    
                                                                                                    
                                                                                                    
                                                                                                    
                                                                                                    
                           
<?xpacket end="w"?></metadata>
<defs>
    <style>
      .cls-1 {
        fill-rule: evenodd;
      }
    </style>
  </defs>
  <path id="_6" data-name="6" class="cls-1" d="M469.345,2820.79h-3.991v-4.37a0.418,0.418,0,0,0-.616-0.37c-2.011,1-5.841,1.68-10.238,1.68s-8.227-.68-10.239-1.68a0.434,0.434,0,0,0-.414.01,0.423,0.423,0,0,0-.2.36v4.37h-3.99a1.651,1.651,0,0,0-1.655,1.64v2.19a1.651,1.651,0,0,0,1.655,1.64h3.99v2.93a1.45,1.45,0,0,0,.84,1.31c2.633,1.23,7.243,1.58,10.015,1.58,2.993,0,7.461-.39,10.013-1.58a1.449,1.449,0,0,0,.841-1.31v-2.93h3.991a1.651,1.651,0,0,0,1.655-1.64v-2.19A1.652,1.652,0,0,0,469.345,2820.79Zm-21.062,6.65a1.229,1.229,0,0,1-2.457,0v-5.97a1.229,1.229,0,0,1,2.457,0v5.97Zm21.062,10.28h-3.991v-4.37a0.421,0.421,0,0,0-.2-0.36,0.435,0.435,0,0,0-.414-0.02c-2.011,1.01-5.841,1.69-10.238,1.69s-8.228-.68-10.239-1.69a0.435,0.435,0,0,0-.414.02,0.411,0.411,0,0,0-.2.36v4.37h-3.99a1.645,1.645,0,0,0-1.655,1.64v2.18a1.645,1.645,0,0,0,1.655,1.64h3.99v2.94a1.45,1.45,0,0,0,.84,1.31c2.633,1.23,7.243,1.57,10.015,1.57,2.993,0,7.461-.39,10.013-1.57a1.449,1.449,0,0,0,.841-1.31v-2.94h3.991a1.645,1.645,0,0,0,1.655-1.64v-2.18A1.645,1.645,0,0,0,469.345,2837.72Zm-21.062,6.63a1.229,1.229,0,0,1-2.457,0v-5.97a1.229,1.229,0,0,1,2.457,0v5.97Zm21.062,10.37h-3.991v-4.38a0.4,0.4,0,0,0-.2-0.35,0.41,0.41,0,0,0-.414-0.02c-2.011,1.01-5.841,1.69-10.238,1.69s-8.228-.68-10.239-1.69a0.427,0.427,0,0,0-.616.37v4.38h-3.99a1.645,1.645,0,0,0-1.655,1.64v2.18a1.645,1.645,0,0,0,1.655,1.64h3.99v2.93a1.465,1.465,0,0,0,.84,1.32c2.633,1.22,7.243,1.57,10.015,1.57,2.993,0,7.461-.39,10.013-1.57a1.464,1.464,0,0,0,.841-1.32v-2.93h3.991a1.645,1.645,0,0,0,1.655-1.64v-2.18A1.645,1.645,0,0,0,469.345,2854.72Zm-21.062,7.11a1.229,1.229,0,0,1-2.457,0v-5.97a1.229,1.229,0,0,1,2.457,0v5.97Z" transform="translate(-438 -2816)"/>
</svg>
