<svg xmlns="http://www.w3.org/2000/svg" width="50" height="57" viewBox="0 0 50 57">
  <metadata><?xpacket begin="﻿" id="W5M0MpCehiHzreSzNTczkc9d"?>
<x:xmpmeta xmlns:x="adobe:ns:meta/" x:xmptk="Adobe XMP Core 5.6-c138 79.159824, 2016/09/14-01:09:01        ">
   <rdf:RDF xmlns:rdf="http://www.w3.org/1999/02/22-rdf-syntax-ns#">
      <rdf:Description rdf:about=""/>
   </rdf:RDF>
</x:xmpmeta>
                                                                                                    
                                                                                                    
                                                                                                    
                                                                                                    
                                                                                                    
                                                                                                    
                                                                                                    
                                                                                                    
                                                                                                    
                                                                                                    
                                                                                                    
                                                                                                    
                                                                                                    
                                                                                                    
                                                                                                    
                                                                                                    
                                                                                                    
                                                                                                    
                                                                                                    
                                                                                                    
                           
<?xpacket end="w"?></metadata>
<defs>
    <style>
      .cls-1 {
        fill-rule: evenodd;
      }
    </style>
  </defs>
  <path id="_5" data-name="5" class="cls-1" d="M451.936,3069.08a1.782,1.782,0,0,1-1.225-1.72v-0.62h8.578v0.62a1.782,1.782,0,0,1-1.225,1.72,1.842,1.842,0,0,1-.613.13h-4.9A1.842,1.842,0,0,1,451.936,3069.08Zm15.932-9.73H441.519a1.808,1.808,0,0,0-1.838,1.84v2.47a1.81,1.81,0,0,0,1.838,1.85H468.48a1.811,1.811,0,0,0,1.839-1.85v-1.85A2.465,2.465,0,0,0,467.868,3059.35Zm-23.224-3.46a3.174,3.174,0,0,0,2.574,2.22h15.809c0.306,0,1.777-.12,2.512-2.22l4.228-15.96a6.942,6.942,0,0,0-1.409-5.6c-1.532-1.85-4.289-2.96-7.905-3.21a7.682,7.682,0,0,0-1.654-.12h-8.578a17.01,17.01,0,0,0-1.778.06h-0.061c-3.86.37-5.882,1.91-6.924,3.27a6.681,6.681,0,0,0-1.164,5.54Zm-7.72-3.88a2.45,2.45,0,0,0-.307-0.55c-0.919-1.23-3.492-.74-4.84-0.74a1.783,1.783,0,0,0-1.777,1.79,1.819,1.819,0,0,0,1.777,1.91H434.9v8.62h2.451s0-8.75-.062-9.55A4.051,4.051,0,0,0,436.924,3052.01Zm41.3-1.29c-1.409,0-3.921-.49-4.841.74a2.484,2.484,0,0,0-.306.55,4.356,4.356,0,0,0-.306,1.54c-0.123.74-.123,9.49-0.123,9.49H475.1v-8.62h3.125a1.819,1.819,0,0,0,1.777-1.91A1.783,1.783,0,0,0,478.223,3050.72Zm-10.846,31.92a3.532,3.532,0,0,1,1.1.18c-1.1-2.83-3.982-5.11-10.416-5.67-0.429-.06-0.8-0.06-1.226-0.12v-6.59h-3.676v6.59c-0.429,0-.858.06-1.226,0.06-7.475.56-10.417,3.39-11.581,5.61a2.565,2.565,0,0,1,.674-0.06,3.171,3.171,0,0,1,1.777.55c0.981-1.48,3.37-3.2,9.13-3.63,0.368,0,.8-0.06,1.226-0.06v3.69a3.221,3.221,0,0,1,1.838-.55,2.881,2.881,0,0,1,1.838.61v-3.69c0.429,0,.858.06,1.226,0.06,4.84,0.43,6.924,1.85,7.843,3.39A3.2,3.2,0,0,1,467.377,3082.64Zm-10.845,1.97a2.046,2.046,0,0,0-1.532-.74,2.158,2.158,0,0,0-1.226.43,1.939,1.939,0,0,0-.8,1.54v0.13a2.022,2.022,0,1,0,4.044,0v-0.13A1.73,1.73,0,0,0,456.532,3084.61Zm12.439,0a2.046,2.046,0,0,0-1.532-.74,2.158,2.158,0,0,0-1.226.43,1.939,1.939,0,0,0-.8,1.54v0.13a2.022,2.022,0,1,0,4.044,0v-0.13A2.5,2.5,0,0,0,468.971,3084.61Zm-26.349,0a2.045,2.045,0,0,0-1.532-.74,2.155,2.155,0,0,0-1.225.43,1.94,1.94,0,0,0-.8,1.54v0.13a2.023,2.023,0,1,0,4.045,0v-0.13A2.507,2.507,0,0,0,442.622,3084.61Z" transform="translate(-430 -3031)"/>
</svg>
