<svg xmlns="http://www.w3.org/2000/svg" width="34" height="50" viewBox="0 0 34 50">
  <metadata><?xpacket begin="﻿" id="W5M0MpCehiHzreSzNTczkc9d"?>
<x:xmpmeta xmlns:x="adobe:ns:meta/" x:xmptk="Adobe XMP Core 5.6-c138 79.159824, 2016/09/14-01:09:01        ">
   <rdf:RDF xmlns:rdf="http://www.w3.org/1999/02/22-rdf-syntax-ns#">
      <rdf:Description rdf:about=""/>
   </rdf:RDF>
</x:xmpmeta>
                                                                                                    
                                                                                                    
                                                                                                    
                                                                                                    
                                                                                                    
                                                                                                    
                                                                                                    
                                                                                                    
                                                                                                    
                                                                                                    
                                                                                                    
                                                                                                    
                                                                                                    
                                                                                                    
                                                                                                    
                                                                                                    
                                                                                                    
                                                                                                    
                                                                                                    
                                                                                                    
                           
<?xpacket end="w"?></metadata>
<defs>
    <style>
      .cls-1 {
        fill: #383838;
        fill-rule: evenodd;
      }
    </style>
  </defs>
  <path id="_resuit_battary" class="cls-1" d="M803.512,1870.87a1.031,1.031,0,0,1,1.068-1h6.531v-4.31a1.037,1.037,0,0,1,1.068-1h11.643a1.036,1.036,0,0,1,1.066,1v4.31h6.533a1.029,1.029,0,0,1,1.066,1v37.57a1.036,1.036,0,0,1-1.066,1H804.58a1.037,1.037,0,0,1-1.068-1v-37.57M801,1870.5v38.43a3.18,3.18,0,0,0,3.273,3.07h27.454a3.181,3.181,0,0,0,3.273-3.07V1870.5a3.183,3.183,0,0,0-3.273-3.08h-4.5v-2.35a3.18,3.18,0,0,0-3.272-3.07h-11.91a3.18,3.18,0,0,0-3.272,3.07v2.35h-4.5A3.18,3.18,0,0,0,801,1870.5h0Zm25.75,15.25h-7.5v-7.5a1.25,1.25,0,0,0-2.5,0v7.5h-7.5a1.25,1.25,0,0,0,0,2.5h7.5v7.5a1.25,1.25,0,0,0,2.5,0v-7.5h7.5A1.25,1.25,0,0,0,826.75,1885.75Z" transform="translate(-801 -1862)"/>
</svg>
