<svg xmlns="http://www.w3.org/2000/svg" width="21" height="21" viewBox="0 0 21 21">
  <metadata><?xpacket begin="﻿" id="W5M0MpCehiHzreSzNTczkc9d"?>
<x:xmpmeta xmlns:x="adobe:ns:meta/" x:xmptk="Adobe XMP Core 5.6-c138 79.159824, 2016/09/14-01:09:01        ">
   <rdf:RDF xmlns:rdf="http://www.w3.org/1999/02/22-rdf-syntax-ns#">
      <rdf:Description rdf:about=""/>
   </rdf:RDF>
</x:xmpmeta>
                                                                                                    
                                                                                                    
                                                                                                    
                                                                                                    
                                                                                                    
                                                                                                    
                                                                                                    
                                                                                                    
                                                                                                    
                                                                                                    
                                                                                                    
                                                                                                    
                                                                                                    
                                                                                                    
                                                                                                    
                                                                                                    
                                                                                                    
                                                                                                    
                                                                                                    
                                                                                                    
                           
<?xpacket end="w"?></metadata>
<defs>
    <style>
      .cls-1 {
        fill: #fee301;
        fill-rule: evenodd;
      }
    </style>
  </defs>
  <path id="_clock_ic" class="cls-1" d="M804.5,43A10.5,10.5,0,1,0,815,53.5,10.5,10.5,0,0,0,804.5,43Zm0.725,11.784a0.774,0.774,0,0,1-.009.083c0,0.021,0,.042-0.008.062s-0.013.042-.02,0.064-0.016.051-.026,0.075a0.062,0.062,0,0,0,0,.013,0.755,0.755,0,0,1-.054.1l0,0.006a0.686,0.686,0,0,1-.077.092L805,55.3a0.757,0.757,0,0,1-.077.063l-0.025.018a0.719,0.719,0,0,1-.109.059,0.216,0.216,0,0,1-.025.009,0.819,0.819,0,0,1-.1.03l-0.036.007a0.746,0.746,0,0,1-.131.013c-0.009,0-.018,0-0.026,0a0.746,0.746,0,0,1-.125-0.013l-0.037-.012a0.781,0.781,0,0,1-.109-0.037l-0.012,0-4.026-1.9a0.726,0.726,0,1,1,.62-1.314l2.99,1.41V47.357a0.726,0.726,0,1,1,1.452,0V54.77h0S805.225,54.779,805.225,54.783Z" transform="translate(-794 -43)"/>
</svg>
