<svg xmlns="http://www.w3.org/2000/svg" width="57" height="52" viewBox="0 0 57 52">
  <metadata><?xpacket begin="﻿" id="W5M0MpCehiHzreSzNTczkc9d"?>
<x:xmpmeta xmlns:x="adobe:ns:meta/" x:xmptk="Adobe XMP Core 5.6-c138 79.159824, 2016/09/14-01:09:01        ">
   <rdf:RDF xmlns:rdf="http://www.w3.org/1999/02/22-rdf-syntax-ns#">
      <rdf:Description rdf:about=""/>
   </rdf:RDF>
</x:xmpmeta>
                                                                                                    
                                                                                                    
                                                                                                    
                                                                                                    
                                                                                                    
                                                                                                    
                                                                                                    
                                                                                                    
                                                                                                    
                                                                                                    
                                                                                                    
                                                                                                    
                                                                                                    
                                                                                                    
                                                                                                    
                                                                                                    
                                                                                                    
                                                                                                    
                                                                                                    
                                                                                                    
                           
<?xpacket end="w"?></metadata>
<defs>
    <style>
      .cls-1 {
        fill-rule: evenodd;
      }
    </style>
  </defs>
  <path id="Forma_1" data-name="Forma 1" class="cls-1" d="M825.317,1023.29v1.13H771.683V992.985a0.283,0.283,0,0,1,.28-0.284h53.073a0.283,0.283,0,0,1,.281.284v30.3Zm1.683-30.3A1.977,1.977,0,0,0,825.036,991H771.963A1.977,1.977,0,0,0,770,992.985v36.945a1.975,1.975,0,0,0,1.963,1.98h16.981l-1.268,6.02h-1.768a2.007,2.007,0,0,0-1.989,2.01v1.05a2,2,0,0,0,1.989,2.01h23.809a2,2,0,0,0,1.989-2.01v-1.05a2.008,2.008,0,0,0-1.989-2.01h-1.95l-1.269-6.02h18.538a1.975,1.975,0,0,0,1.964-1.98V992.985Zm-19.915,46.655h2.631a0.309,0.309,0,0,1,.306.3v1.05a0.311,0.311,0,0,1-.306.31H785.907a0.311,0.311,0,0,1-.305-0.31v-1.05a0.309,0.309,0,0,1,.305-0.3h21.178Zm-17.688-1.71,1.268-6.02h14.113l1.268,6.02H789.4Zm35.92-8a0.277,0.277,0,0,1-.281.28H771.963a0.277,0.277,0,0,1-.28-0.28v-3.81h53.634v3.81h0Zm-14.409-26.45h-7.414v-6.688a0.845,0.845,0,0,0-.841-0.851H786.142a0.846,0.846,0,0,0-.842.851v16.7a0.846,0.846,0,0,0,.842.85h7.414v6.68a0.845,0.845,0,0,0,.841.85h16.511a0.846,0.846,0,0,0,.842-0.85v-16.69A0.846,0.846,0,0,0,810.908,1003.48Zm-17.352.85v8.3h-6.573V997.642h14.828v5.838H794.4A0.845,0.845,0,0,0,793.556,1004.33Zm8.255,0.85v7.45h-6.572v-7.45h6.572Zm8.256,14.99H795.239v-5.83h7.414a0.845,0.845,0,0,0,.841-0.85v-8.31h6.572v14.99h0ZM820.192,997.2h-3.273a0.846,0.846,0,0,0-.841.851v10.316a0.845,0.845,0,0,0,.841.85h3.273a0.845,0.845,0,0,0,.841-0.85V998.054A0.846,0.846,0,0,0,820.192,997.2Zm-0.842,10.317h-1.589v-8.615h1.589v8.615Zm0.842,3.46h-3.273a0.855,0.855,0,0,0,0,1.71h3.273A0.855,0.855,0,0,0,820.192,1010.98Zm0,3.47h-3.273a0.85,0.85,0,0,0,0,1.7h3.273A0.85,0.85,0,0,0,820.192,1014.45Zm0,3.46h-3.273a0.845,0.845,0,0,0-.841.85,0.853,0.853,0,0,0,.841.86h3.273a0.853,0.853,0,0,0,.841-0.86A0.845,0.845,0,0,0,820.192,1017.91Zm-39.757-22.473h-4.208a0.846,0.846,0,0,0-.841.851v4.252a0.845,0.845,0,0,0,.841.85h4.208a0.845,0.845,0,0,0,.841-0.85v-4.252A0.846,0.846,0,0,0,780.435,995.437Zm-0.842,4.255h-2.524v-2.553h2.524v2.553Zm0.842,2.378h-4.208a0.845,0.845,0,0,0-.841.85v4.26a0.845,0.845,0,0,0,.841.85h4.208a0.845,0.845,0,0,0,.841-0.85v-4.26A0.845,0.845,0,0,0,780.435,1002.07Zm-0.842,4.26h-2.524v-2.55h2.524v2.55Zm0.842,2.38h-4.208a0.845,0.845,0,0,0-.841.85v4.26a0.845,0.845,0,0,0,.841.85h4.208a0.845,0.845,0,0,0,.841-0.85v-4.26A0.845,0.845,0,0,0,780.435,1008.71Zm-0.842,4.25h-2.524v-2.55h2.524v2.55Zm0.842,2.39h-4.208a0.845,0.845,0,0,0-.841.85v4.25a0.845,0.845,0,0,0,.841.85h4.208a0.845,0.845,0,0,0,.841-0.85v-4.25A0.845,0.845,0,0,0,780.435,1015.35Zm-0.842,4.25h-2.524v-2.55h2.524v2.55Z" transform="translate(-770 -991)"/>
</svg>
