<svg xmlns="http://www.w3.org/2000/svg" width="59" height="52" viewBox="0 0 59 52">
  <metadata><?xpacket begin="﻿" id="W5M0MpCehiHzreSzNTczkc9d"?>
<x:xmpmeta xmlns:x="adobe:ns:meta/" x:xmptk="Adobe XMP Core 5.6-c138 79.159824, 2016/09/14-01:09:01        ">
   <rdf:RDF xmlns:rdf="http://www.w3.org/1999/02/22-rdf-syntax-ns#">
      <rdf:Description rdf:about=""/>
   </rdf:RDF>
</x:xmpmeta>
                                                                                                    
                                                                                                    
                                                                                                    
                                                                                                    
                                                                                                    
                                                                                                    
                                                                                                    
                                                                                                    
                                                                                                    
                                                                                                    
                                                                                                    
                                                                                                    
                                                                                                    
                                                                                                    
                                                                                                    
                                                                                                    
                                                                                                    
                                                                                                    
                                                                                                    
                                                                                                    
                           
<?xpacket end="w"?></metadata>
<defs>
    <style>
      .cls-1 {
        fill-rule: evenodd;
      }
    </style>
  </defs>
  <path id="_perevagi_znizki" class="cls-1" d="M1204.44,991h-49.88a4.545,4.545,0,0,0-4.56,4.514v29.256a4.55,4.55,0,0,0,4.56,4.52h18.47a0.86,0.86,0,1,0,0-1.72h-18.47a2.821,2.821,0,0,1-2.83-2.8V995.514a2.819,2.819,0,0,1,2.83-2.8h49.88a2.819,2.819,0,0,1,2.83,2.8v29.256a0.865,0.865,0,0,0,1.73,0V995.514A4.545,4.545,0,0,0,1204.44,991Zm-30.48,30.17h-16.63a0.855,0.855,0,1,0,0,1.71h16.63A0.855,0.855,0,1,0,1173.96,1021.17Zm-6.53-15.6v-3.66a2.7,2.7,0,0,0-2.71-2.682h-5.54a2.7,2.7,0,0,0-2.71,2.682v3.66a2.7,2.7,0,0,0,2.71,2.69h5.54A2.7,2.7,0,0,0,1167.43,1005.57Zm-9.23,0v-0.97h0.98a0.855,0.855,0,1,0,0-1.71h-0.98v-0.98a0.98,0.98,0,0,1,.98-0.97h1.9v5.6h-1.9A0.973,0.973,0,0,1,1158.2,1005.57Zm6.52,0.97h-1.9v-5.6h1.9a0.98,0.98,0,0,1,.98.97v0.98h-0.98a0.855,0.855,0,1,0,0,1.71h0.98v0.97A0.973,0.973,0,0,1,1164.72,1006.54Zm-8.25,10a0.865,0.865,0,0,0,1.73,0v-1.83a0.86,0.86,0,0,0-.87-0.85,0.851,0.851,0,0,0-.86.85v1.83Zm2.77-1.83v1.83a0.865,0.865,0,0,0,1.73,0v-1.83a0.86,0.86,0,0,0-.87-0.85A0.851,0.851,0,0,0,1159.24,1014.71Zm2.77,0v1.83a0.865,0.865,0,0,0,1.73,0v-1.83A0.865,0.865,0,0,0,1162.01,1014.71Zm2.77,0v1.83a0.865,0.865,0,0,0,1.73,0v-1.83A0.865,0.865,0,0,0,1164.78,1014.71Zm5.43,1.83v-1.83a0.87,0.87,0,0,0-1.74,0v1.83A0.87,0.87,0,0,0,1170.21,1016.54Zm2.77,0v-1.83a0.87,0.87,0,0,0-1.74,0v1.83A0.87,0.87,0,0,0,1172.98,1016.54Zm1.9-2.68a0.851,0.851,0,0,0-.86.85v1.83a0.865,0.865,0,0,0,1.73,0v-1.83A0.86,0.86,0,0,0,1174.88,1013.86Zm3.64,2.68v-1.83a0.86,0.86,0,0,0-.87-0.85,0.851,0.851,0,0,0-.86.85v1.83A0.865,0.865,0,0,0,1178.52,1016.54Zm19.45-8.28a4.516,4.516,0,1,0,0-9.032h-5.54a4.516,4.516,0,1,0,0,9.032h5.54Zm-8.37-4.52a2.821,2.821,0,0,1,2.83-2.8h5.54a2.8,2.8,0,1,1,0,5.6h-5.54A2.815,2.815,0,0,1,1189.6,1003.74Zm0.98,10.12a14.571,14.571,0,1,0,14.73,14.57A14.663,14.663,0,0,0,1190.58,1013.86Zm0,27.42a12.856,12.856,0,1,1,12.99-12.85A12.934,12.934,0,0,1,1190.58,1041.28Zm7.08-19.86a0.875,0.875,0,0,0-1.22,0l-12.93,12.8a0.845,0.845,0,0,0,0,1.21,0.846,0.846,0,0,0,1.22,0l12.93-12.8A0.845,0.845,0,0,0,1197.66,1021.42Zm-11.23,6.04a4.06,4.06,0,1,0-4.1-4.06A4.084,4.084,0,0,0,1186.43,1027.46Zm0-6.4a2.34,2.34,0,1,1-2.37,2.34A2.354,2.354,0,0,1,1186.43,1021.06Zm9.23,7.43a4.055,4.055,0,1,0,4.1,4.05A4.067,4.067,0,0,0,1195.66,1028.49Zm0,6.4a2.345,2.345,0,1,1,2.37-2.35A2.362,2.362,0,0,1,1195.66,1034.89Z" transform="translate(-1150 -991)"/>
</svg>
