<svg xmlns="http://www.w3.org/2000/svg" width="52" height="52" viewBox="0 0 52 52">
  <metadata><?xpacket begin="﻿" id="W5M0MpCehiHzreSzNTczkc9d"?>
<x:xmpmeta xmlns:x="adobe:ns:meta/" x:xmptk="Adobe XMP Core 5.6-c138 79.159824, 2016/09/14-01:09:01        ">
   <rdf:RDF xmlns:rdf="http://www.w3.org/1999/02/22-rdf-syntax-ns#">
      <rdf:Description rdf:about=""/>
   </rdf:RDF>
</x:xmpmeta>
                                                                                                    
                                                                                                    
                                                                                                    
                                                                                                    
                                                                                                    
                                                                                                    
                                                                                                    
                                                                                                    
                                                                                                    
                                                                                                    
                                                                                                    
                                                                                                    
                                                                                                    
                                                                                                    
                                                                                                    
                                                                                                    
                                                                                                    
                                                                                                    
                                                                                                    
                                                                                                    
                           
<?xpacket end="w"?></metadata>
<defs>
    <style>
      .cls-1 {
        fill-rule: evenodd;
      }
    </style>
  </defs>
  <path id="_perevagi_grafik_ic" class="cls-1" d="M428.929,1026.95v-5.24a0.765,0.765,0,1,0-1.53,0v5.24a2.329,2.329,0,0,0-1.215,3.39l-2.4,2.62a0.768,0.768,0,0,0,.563,1.29,0.745,0.745,0,0,0,.564-0.25l2.452-2.68a2.362,2.362,0,0,0,.8.14A2.322,2.322,0,0,0,428.929,1026.95Zm-0.765,2.98a0.785,0.785,0,1,1,.781-0.79A0.783,0.783,0,0,1,428.164,1029.93Zm10.621-9.68v-14.14a0.809,0.809,0,0,0,.027-0.2v-8.316a0.767,0.767,0,0,0-.766-0.769h-4.78v-2.776a3.036,3.036,0,1,0-6.072,0v2.776h-25.55v-2.776a3.036,3.036,0,1,0-6.072,0v2.776h-4.807a0.766,0.766,0,0,0-.765.769v37.136a0.771,0.771,0,0,0,.765.77h25.158A13.821,13.821,0,1,0,438.785,1020.25Zm-10.061-26.2a1.506,1.506,0,1,1,3.012,0v6.011a1.528,1.528,0,0,1-.031.3,1.505,1.505,0,0,1-2.981-.3v-6.011Zm-31.622,0a1.506,1.506,0,1,1,3.012,0v6.011a1.506,1.506,0,1,1-3.012,0v-6.011Zm-5.545,4.313h4.015v1.7a3.036,3.036,0,1,0,6.072,0v-1.7h25.55v1.7a3.036,3.036,0,1,0,6.072,0v-1.7h3.989v6.778h-45.7v-6.778Zm-0.027,35.6v-27.28h45.725v11.99a14.054,14.054,0,0,0-3.377-2.18l-0.138-.06-0.139-.06c-0.082-.03-0.164-0.07-0.247-0.1-0.01,0-.021-0.01-0.031-0.01a12.823,12.823,0,0,0-2.124-.66v-4.52a0.771,0.771,0,0,0-.765-0.77H425.5a0.771,0.771,0,0,0-.765.77v4.62a13.881,13.881,0,0,0-10.36,13.43c0,0.12,0,.23,0,0.34,0,0.03,0,.05,0,0.08,0,0.09.006,0.18,0.011,0.27,0,0.02,0,.04,0,0.07,0.006,0.1.012,0.19,0.019,0.29,0,0.01,0,.02,0,0.03a13.668,13.668,0,0,0,.82,3.75H391.53Zm38.139-22.11v3.41h-3.4v-3.41h3.4Zm-1.48,29.61a12.316,12.316,0,0,1-12.216-11.07s0,0,0-.01c-0.01-.09-0.019-0.19-0.026-0.29,0-.02,0-0.04-0.005-0.06,0-.09-0.011-0.17-0.015-0.25,0-.05,0-0.1-0.006-0.14,0-.06,0-0.12-0.007-0.18,0-.11,0-0.22,0-0.33a12.318,12.318,0,0,1,12.28-12.33h0.327c0.019,0,.038.01,0.057,0.01a2.491,2.491,0,0,1,.273.01h0.043c0.1,0.01.192,0.01,0.288,0.02H429.2a12.306,12.306,0,0,1,4.06,1.06l0.131,0.06,0.134,0.06,0.234,0.12a0.024,0.024,0,0,0,.023.01A12.34,12.34,0,0,1,428.189,1041.46Zm6.641-5.01a0.767,0.767,0,0,0-1.074-.13,8.97,8.97,0,0,1-5.567,1.91,9.108,9.108,0,0,1-7.238-14.58,0.775,0.775,0,0,0-.149-1.08,0.767,0.767,0,0,0-1.072.15,10.651,10.651,0,0,0,8.459,17.05,10.444,10.444,0,0,0,6.508-2.24A0.772,0.772,0,0,0,434.83,1036.45Zm-6.641-17.96a10.472,10.472,0,0,0-6.6,2.31,0.771,0.771,0,0,0-.122,1.08,0.76,0.76,0,0,0,1.075.13,8.914,8.914,0,0,1,5.644-1.98,9.092,9.092,0,0,1,9.066,9.1,9,9,0,0,1-1.975,5.67,0.769,0.769,0,0,0,.12,1.08,0.724,0.724,0,0,0,.477.17,0.764,0.764,0,0,0,.6-0.29A10.649,10.649,0,0,0,428.189,1018.49Zm-24.855-8.18H398.4a0.771,0.771,0,0,0-.765.77v4.95a0.764,0.764,0,0,0,.765.77h4.93a0.765,0.765,0,0,0,.765-0.77v-4.95A0.771,0.771,0,0,0,403.334,1010.31Zm-0.765,4.95h-3.4v-3.41h3.4v3.41h0Zm9.8-4.95h-4.93a0.771,0.771,0,0,0-.765.77v4.95a0.765,0.765,0,0,0,.765.77h4.93a0.764,0.764,0,0,0,.765-0.77v-4.95A0.771,0.771,0,0,0,412.367,1010.31Zm-0.765,4.95h-3.4v-3.41h3.4v3.41Zm9.8-4.95h-4.93a0.771,0.771,0,0,0-.765.77v4.95a0.764,0.764,0,0,0,.765.77h4.93a0.765,0.765,0,0,0,.765-0.77v-4.95A0.771,0.771,0,0,0,421.4,1010.31Zm-0.765,4.95h-3.4v-3.41h3.4v3.41Zm-17.3,5.68H398.4a0.764,0.764,0,0,0-.765.77v4.95a0.771,0.771,0,0,0,.765.77h4.93a0.771,0.771,0,0,0,.765-0.77v-4.95A0.765,0.765,0,0,0,403.334,1020.94Zm-0.765,4.95h-3.4v-3.41h3.4v3.41h0Zm9.8-4.95h-4.93a0.765,0.765,0,0,0-.765.77v4.95a0.771,0.771,0,0,0,.765.77h4.93a0.771,0.771,0,0,0,.765-0.77v-4.95A0.764,0.764,0,0,0,412.367,1020.94Zm-0.765,4.95h-3.4v-3.41h3.4v3.41Z" transform="translate(-390 -991)"/>
</svg>
