<?xml version="1.0" encoding="UTF-8"?> <svg xmlns="http://www.w3.org/2000/svg" width="37.62" height="49.332" viewBox="0 0 37.62 49.332"><g id="Сгруппировать_163" data-name="Сгруппировать 163" transform="translate(-487.745 -126.322)"><circle id="Эллипс_5" data-name="Эллипс 5" cx="4.087" cy="4.087" r="4.087" transform="translate(507.669 126.822)" stroke="#313131" stroke-width="1"></circle><path id="Контур_121" data-name="Контур 121" d="M522.516,196.292h-7.185l-5.1-3.637a2.35,2.35,0,0,0-.472-.261l-5.627-2.309-.1-.039-4.577-1.638a2.349,2.349,0,0,0-1.544-.013l-8.062,2.729a2.349,2.349,0,1,0,1.506,4.45l7.288-2.467,2.832,1.013-5.87,7.871a3.125,3.125,0,0,0,.1,3.509l4.9,5.13-5.778,1.539a2.349,2.349,0,1,0,1.209,4.54l9.616-2.561a2.349,2.349,0,0,0,1.093-3.893l-3.524-3.686,4.779.278,9.354,4.657a2.349,2.349,0,0,0,2.094-4.206l-9.784-4.871a2.35,2.35,0,0,0-.911-.242l-3.875-.225,3.545-4.824,4.792,3.418a2.349,2.349,0,0,0,1.364.437h7.936a2.349,2.349,0,1,0,0-4.7Z" transform="translate(0 -55.676)" stroke="#313131" stroke-width="1"></path><path id="Контур_122" data-name="Контур 122" d="M647.561,441.611a1.315,1.315,0,0,0-1.315,1.315v14.809h-6.7a1.315,1.315,0,0,0,0,2.631h8.02a1.315,1.315,0,0,0,1.315-1.315V442.926A1.315,1.315,0,0,0,647.561,441.611Z" transform="translate(-135.881 -285.212)" stroke="#313131" stroke-width="1"></path></g></svg> 