<svg xmlns="http://www.w3.org/2000/svg" width="52" height="50" viewBox="0 0 52 50">
  <metadata><?xpacket begin="﻿" id="W5M0MpCehiHzreSzNTczkc9d"?>
<x:xmpmeta xmlns:x="adobe:ns:meta/" x:xmptk="Adobe XMP Core 5.6-c138 79.159824, 2016/09/14-01:09:01        ">
   <rdf:RDF xmlns:rdf="http://www.w3.org/1999/02/22-rdf-syntax-ns#">
      <rdf:Description rdf:about=""/>
   </rdf:RDF>
</x:xmpmeta>
                                                                                                    
                                                                                                    
                                                                                                    
                                                                                                    
                                                                                                    
                                                                                                    
                                                                                                    
                                                                                                    
                                                                                                    
                                                                                                    
                                                                                                    
                                                                                                    
                                                                                                    
                                                                                                    
                                                                                                    
                                                                                                    
                                                                                                    
                                                                                                    
                                                                                                    
                                                                                                    
                           
<?xpacket end="w"?></metadata>
<defs>
    <style>
      .cls-1 {
        fill: #383838;
        fill-rule: evenodd;
      }
    </style>
  </defs>
  <path id="_resuit_like" class="cls-1" d="M1414,1891.89a4.86,4.86,0,0,0-1.41-3.42,5.42,5.42,0,0,0,1.39-4.15,5.612,5.612,0,0,0-5.65-4.93h-13.38a31.456,31.456,0,0,0,1.72-8.69c0-4.72-4-8.7-6.5-8.7a6.845,6.845,0,0,0-3.93,1.32,1.091,1.091,0,0,0-.41.85v7.37l-6.24,13.57-0.26.13v-0.41a1.084,1.084,0,0,0-1.08-1.09h-10.83a5.433,5.433,0,0,0-5.42,5.43v17.4a5.433,5.433,0,0,0,5.42,5.43h6.5a5.442,5.442,0,0,0,5.1-3.59,14.084,14.084,0,0,0,5.73,1.42h19.89a4.892,4.892,0,0,0,4.52-7.07,4.849,4.849,0,0,0,2.67-4.34,4.788,4.788,0,0,0-.51-2.18A4.873,4.873,0,0,0,1414,1891.89Zm-36.83,14.68a3.265,3.265,0,0,1-3.25,3.26h-6.5a3.258,3.258,0,0,1-3.25-3.26v-17.4a3.258,3.258,0,0,1,3.25-3.26v0.01h9.74v1.09c0,0.01.01,0.01,0.01,0.02v19.54Zm32.26-11.99a1.089,1.089,0,0,0-.62,1.87,2.692,2.692,0,0,1-1.55,4.65,1.083,1.083,0,0,0-.9.73,1.118,1.118,0,0,0,.28,1.14,2.662,2.662,0,0,1,.79,2.59,2.808,2.808,0,0,1-2.79,2.09h-19.89a11.114,11.114,0,0,1-5.42-1.6v-18.37l1.57-.78a1.173,1.173,0,0,0,.49-0.52l6.5-14.13a1.03,1.03,0,0,0,.1-0.46v-7.01a4.572,4.572,0,0,1,2.17-.6c1.19,0,4.33,2.97,4.33,6.53,0,3.82-2.07,9.34-2.09,9.39a1.084,1.084,0,0,0,1.01,1.47h14.91a3.42,3.42,0,0,1,3.49,2.96,3.228,3.228,0,0,1-1.54,3.07,1.113,1.113,0,0,0-.51.97,1.071,1.071,0,0,0,.59.92A2.7,2.7,0,0,1,1409.43,1894.58Z" transform="translate(-1362 -1862)"/>
</svg>
