<svg xmlns="http://www.w3.org/2000/svg" width="16" height="22" viewBox="0 0 16 22">
  <metadata><?xpacket begin="﻿" id="W5M0MpCehiHzreSzNTczkc9d"?>
<x:xmpmeta xmlns:x="adobe:ns:meta/" x:xmptk="Adobe XMP Core 5.6-c138 79.159824, 2016/09/14-01:09:01        ">
   <rdf:RDF xmlns:rdf="http://www.w3.org/1999/02/22-rdf-syntax-ns#">
      <rdf:Description rdf:about=""/>
   </rdf:RDF>
</x:xmpmeta>
                                                                                                    
                                                                                                    
                                                                                                    
                                                                                                    
                                                                                                    
                                                                                                    
                                                                                                    
                                                                                                    
                                                                                                    
                                                                                                    
                                                                                                    
                                                                                                    
                                                                                                    
                                                                                                    
                                                                                                    
                                                                                                    
                                                                                                    
                                                                                                    
                                                                                                    
                                                                                                    
                           
<?xpacket end="w"?></metadata>
<defs>
    <style>
      .cls-1 {
        fill: #fff;
        fill-rule: evenodd;
      }
    </style>
  </defs>
  <path id="Shape_1_копія_2" data-name="Shape 1 копія 2" class="cls-1" d="M550.844,17.587H550.53V14.721a6.527,6.527,0,0,0-13.035-.643c-0.019.211-.029,3.426-0.029,3.643a0.6,0.6,0,1,0,1.195,0c0-.258.018-3.511,0.051-3.76a5.329,5.329,0,0,1,10.622.76v2.866H537.156A1.174,1.174,0,0,0,536,18.777v7.66A3.519,3.519,0,0,0,539.463,30h9.074A3.519,3.519,0,0,0,552,26.436v-7.66A1.174,1.174,0,0,0,550.844,17.587Zm-0.04,8.849a2.3,2.3,0,0,1-2.267,2.333h-9.07a2.3,2.3,0,0,1-2.267-2.333V18.817h13.6v7.619h0Zm-6.8-.251a2.3,2.3,0,1,0-2.236-2.3A2.272,2.272,0,0,0,544,26.186Zm0-3.377a1.074,1.074,0,1,1-1.041,1.076A1.058,1.058,0,0,1,544,22.809Z" transform="translate(-536 -8)"/>
</svg>
