<svg xmlns="http://www.w3.org/2000/svg" width="16" height="22" viewBox="0 0 16 22">
  <metadata><?xpacket begin="﻿" id="W5M0MpCehiHzreSzNTczkc9d"?>
<x:xmpmeta xmlns:x="adobe:ns:meta/" x:xmptk="Adobe XMP Core 5.6-c138 79.159824, 2016/09/14-01:09:01        ">
   <rdf:RDF xmlns:rdf="http://www.w3.org/1999/02/22-rdf-syntax-ns#">
      <rdf:Description rdf:about=""/>
   </rdf:RDF>
</x:xmpmeta>
<?xpacket end="w"?></metadata>
<defs>
    <style>
      .cls-1 {
        fill: #fee301;
        fill-rule: evenodd;
      }
    </style>
  </defs>
  <path class="cls-1" d="M577.844,17.587H577.53V14.721a6.535,6.535,0,1,0-13.064,0,0.6,0.6,0,1,0,1.195,0,5.339,5.339,0,1,1,10.673,0v2.866H564.156A1.174,1.174,0,0,0,563,18.777v7.66A3.519,3.519,0,0,0,566.463,30h9.074A3.519,3.519,0,0,0,579,26.436v-7.66A1.174,1.174,0,0,0,577.844,17.587Zm-0.04,8.849a2.3,2.3,0,0,1-2.267,2.333h-9.07a2.3,2.3,0,0,1-2.267-2.333V18.817h13.6v7.619h0Zm-6.8-.251a2.3,2.3,0,1,0-2.236-2.3A2.272,2.272,0,0,0,571,26.186Zm0-3.377a1.074,1.074,0,1,1-1.041,1.076A1.058,1.058,0,0,1,571,22.809Z" transform="translate(-563 -8)"/>
</svg>
