<svg xmlns="http://www.w3.org/2000/svg" width="55.97" height="50" viewBox="0 0 55.97 50">
  <metadata><?xpacket begin="﻿" id="W5M0MpCehiHzreSzNTczkc9d"?>
<x:xmpmeta xmlns:x="adobe:ns:meta/" x:xmptk="Adobe XMP Core 5.6-c138 79.159824, 2016/09/14-01:09:01        ">
   <rdf:RDF xmlns:rdf="http://www.w3.org/1999/02/22-rdf-syntax-ns#">
      <rdf:Description rdf:about=""/>
   </rdf:RDF>
</x:xmpmeta>
                                                                                                    
                                                                                                    
                                                                                                    
                                                                                                    
                                                                                                    
                                                                                                    
                                                                                                    
                                                                                                    
                                                                                                    
                                                                                                    
                                                                                                    
                                                                                                    
                                                                                                    
                                                                                                    
                                                                                                    
                                                                                                    
                                                                                                    
                                                                                                    
                                                                                                    
                                                                                                    
                           
<?xpacket end="w"?></metadata>
<defs>
    <style>
      .cls-1 {
        fill: #383838;
        fill-rule: evenodd;
      }
    </style>
  </defs>
  <path id="_resuit_arm" class="cls-1" d="M1082.75,1880.19l0.41-.01a15.155,15.155,0,0,1,13.4,7.95,12.915,12.915,0,0,1,13.45,1.78,44.161,44.161,0,0,1,.56-5.63,31.616,31.616,0,0,0,.44-4.1h-5.9a3.5,3.5,0,0,1-2.47-1l-4.66-4.54a14.619,14.619,0,0,0-.65-6.94,3.42,3.42,0,0,1,1.54-2.5l2.83-1.84a8.43,8.43,0,0,1,4.61-1.36,12.913,12.913,0,0,1,9.08,3.67,48.338,48.338,0,0,1,10.45,14.81c2.97,6.6,4.48,11.47,4.48,14.47a15.576,15.576,0,0,0,.45,4.16,4.988,4.988,0,0,1-2.46,5.74,56.866,56.866,0,0,1-27.62,7.15H1099a57.069,57.069,0,0,1-17.6-2.78l-0.82-.27a7.961,7.961,0,0,1-5.58-7.55v-13.25A8.012,8.012,0,0,1,1082.75,1880.19Zm-5.42,21.21a5.68,5.68,0,0,0,3.99,5.39l0.82,0.27a54.444,54.444,0,0,0,16.86,2.67h1.69a54.477,54.477,0,0,0,26.46-6.85,2.746,2.746,0,0,0,1.38-3.15,17.628,17.628,0,0,1-.54-4.78c0-2.64-1.48-7.33-4.29-13.55a46.151,46.151,0,0,0-9.96-14.13,10.583,10.583,0,0,0-7.43-3,6.05,6.05,0,0,0-3.31.98l-2.83,1.84a1.122,1.122,0,0,0-.52.83,1.134,1.134,0,0,0,.34.92l3.72,3.63a1.341,1.341,0,0,0,1.51.24,1.289,1.289,0,0,0,.71-0.94,1.227,1.227,0,0,0-.37-1.1l-1.07-1.05a1.129,1.129,0,0,1,0-1.61,1.2,1.2,0,0,1,1.65,0l1.07,1.05a3.447,3.447,0,0,1,1.02,3.08,3.539,3.539,0,0,1-1.97,2.6,3.7,3.7,0,0,1-4.2-.67l-2.55-2.48a1.1,1.1,0,0,0,.12,1.44l4.66,4.55a1.2,1.2,0,0,0,.82.33h5.45a1.332,1.332,0,0,0-.24-0.33,1.129,1.129,0,0,1,0-1.61,1.2,1.2,0,0,1,1.65,0c1.91,1.86,1.44,5,.91,8.64a39.707,39.707,0,0,0-.57,5.8c0,4.68,3.64,5.68,3.79,5.72a1.125,1.125,0,0,1,.84,1.37,1.156,1.156,0,0,1-1.13.86,1.333,1.333,0,0,1-.28-0.03,7.548,7.548,0,0,1-4.84-4.33,0.236,0.236,0,0,1-.05-0.05,10.663,10.663,0,0,0-16.21-1.71,1.2,1.2,0,0,1-1.65-.01,1.12,1.12,0,0,1,.01-1.61,12.7,12.7,0,0,1,1.74-1.38,12.831,12.831,0,0,0-11.37-6.79l-0.34.01a5.7,5.7,0,0,0-5.49,5.69v13.25h0Z" transform="translate(-1075 -1862)"/>
</svg>
