<svg id="_perevagi_parking_ic" xmlns="http://www.w3.org/2000/svg" width="72" height="52" viewBox="0 0 72 52">
  <metadata><?xpacket begin="﻿" id="W5M0MpCehiHzreSzNTczkc9d"?>
<x:xmpmeta xmlns:x="adobe:ns:meta/" x:xmptk="Adobe XMP Core 5.6-c138 79.159824, 2016/09/14-01:09:01        ">
   <rdf:RDF xmlns:rdf="http://www.w3.org/1999/02/22-rdf-syntax-ns#">
      <rdf:Description rdf:about=""/>
   </rdf:RDF>
</x:xmpmeta>
                                                                                                    
                                                                                                    
                                                                                                    
                                                                                                    
                                                                                                    
                                                                                                    
                                                                                                    
                                                                                                    
                                                                                                    
                                                                                                    
                                                                                                    
                                                                                                    
                                                                                                    
                                                                                                    
                                                                                                    
                                                                                                    
                                                                                                    
                                                                                                    
                                                                                                    
                                                                                                    
                           
<?xpacket end="w"?></metadata>
<defs>
    <style>
      .cls-1 {
        fill-rule: evenodd;
      }
    </style>
  </defs>
  <path id="Forma_1" data-name="Forma 1" class="cls-1" d="M786.666,870H773.333A3.2,3.2,0,0,0,770,873.046v12.188a3.2,3.2,0,0,0,3.333,3.047h5.556v26.158h-1.334a1.09,1.09,0,0,0-1.093.832l-1.111,5.529a0.956,0.956,0,0,0,.239.834,1.16,1.16,0,0,0,.854.366h7.111a1.159,1.159,0,0,0,.854-0.366,0.953,0.953,0,0,0,.239-0.834l-1.111-5.529a1.09,1.09,0,0,0-1.093-.832h-1.333V888.281h5.555A3.2,3.2,0,0,0,790,885.234V873.046A3.2,3.2,0,0,0,786.666,870Zm-5.147,46.471,0.7,3.5h-4.444l0.7-3.5h3.038Zm6.259-31.237a1.068,1.068,0,0,1-1.112,1.015H773.333a1.068,1.068,0,0,1-1.111-1.015V873.046a1.068,1.068,0,0,1,1.111-1.015h13.333a1.068,1.068,0,0,1,1.112,1.015v12.188ZM780,874.355h-2.485a1.067,1.067,0,0,0-1.112,1.015v7.54a1.116,1.116,0,0,0,2.223,0v-1.98H780A3.3,3.3,0,1,0,780,874.355Zm0,4.543h-1.374v-2.512H780A1.261,1.261,0,1,1,780,878.9Z" transform="translate(-770 -870)"/>
  <path class="cls-1" d="M825.741,894.045H823.7a0.94,0.94,0,1,0,0,1.88h2.039A0.94,0.94,0,1,0,825.741,894.045Zm0.252,7.768a1.974,1.974,0,0,0-1.558-.748h-19.87a1.974,1.974,0,0,0-1.558.748,1.9,1.9,0,0,0-.36,1.666l0.51,2.006a1.968,1.968,0,0,0,1.918,1.472h18.85a1.967,1.967,0,0,0,1.917-1.472l0.51-2.006A1.9,1.9,0,0,0,825.993,901.813Zm-1.5,1.21-0.51,2.006a0.064,0.064,0,0,1-.062.048h-18.85a0.064,0.064,0,0,1-.062-0.048l-0.51-2.006a0.056,0.056,0,0,1,.011-0.053,0.059,0.059,0,0,1,.051-0.025h19.87a0.058,0.058,0,0,1,.05.025A0.057,0.057,0,0,1,824.5,903.023Zm-16.922-20.009H800.3a4.025,4.025,0,0,0-3.775,2.6l-2.551,6.9a2.985,2.985,0,0,0-2.958-2.477H790a2.946,2.946,0,1,0,0,5.891h1.02a3.019,3.019,0,0,0,1.313-.3l-2.186,2.686a4.918,4.918,0,0,0-1.1,3.093v18.65A1.963,1.963,0,0,0,791.017,922h3.06a1.963,1.963,0,0,0,1.977-1.944v-4.073h36.892v4.073A1.963,1.963,0,0,0,834.923,922h3.06a1.963,1.963,0,0,0,1.977-1.944v-18.65a4.918,4.918,0,0,0-1.1-3.093l-2.187-2.686a3.023,3.023,0,0,0,1.314.3H839a2.946,2.946,0,1,0,0-5.891h-1.02a2.985,2.985,0,0,0-2.958,2.477l-2.551-6.9a4.027,4.027,0,0,0-3.775-2.6h-7.274m-30.408,11.031H790a1.066,1.066,0,1,1,0-2.131h1.02A1.066,1.066,0,1,1,791.017,894.045Zm28.457-11.031h-9.949m-15.384,37.042a0.064,0.064,0,0,1-.064.063h-3.06a0.063,0.063,0,0,1-.064-0.063V915.4a4.049,4.049,0,0,0,2.1.587h1.084v4.073h0Zm30.644-5.954h-20.57v-2.068a0.063,0.063,0,0,1,.063-0.063h20.443a0.063,0.063,0,0,1,.064.063V914.1h0Zm13.262,5.954a0.064,0.064,0,0,1-.064.063h-3.06a0.063,0.063,0,0,1-.064-0.063v-4.073h1.084a4.052,4.052,0,0,0,2.1-.587v4.66h0Zm-0.685-20.568a3.047,3.047,0,0,1,.685,1.919v10.627a2.089,2.089,0,0,1-2.1,2.068H826.7v-2.068a1.963,1.963,0,0,0-1.977-1.943H804.278a1.963,1.963,0,0,0-1.976,1.943V914.1h-9.245a2.089,2.089,0,0,1-2.1-2.068V901.407a3.047,3.047,0,0,1,.685-1.919l2.9-3.563h25.084a0.94,0.94,0,1,0,0-1.88H795.443l2.881-7.79a2.109,2.109,0,0,1,1.977-1.361h28.4a2.109,2.109,0,0,1,1.977,1.361l2.881,7.79h-3.735a0.94,0.94,0,1,0,0,1.88h4.641ZM836.9,892.98a1.076,1.076,0,0,1,1.084-1.066H839a1.066,1.066,0,1,1,0,2.131h-1.02A1.076,1.076,0,0,1,836.9,892.98Zm-39.762,15.105a1.943,1.943,0,1,0,1.977,1.943A1.962,1.962,0,0,0,797.137,908.085Zm34.725,0a1.943,1.943,0,1,0,1.977,1.943A1.962,1.962,0,0,0,831.862,908.085Zm-35.235-8.023a3.448,3.448,0,1,0,3.507,3.448A3.482,3.482,0,0,0,796.627,900.062Zm0,5.014a1.567,1.567,0,1,1,1.594-1.567A1.582,1.582,0,0,1,796.627,905.076Zm35.745-5.014a3.448,3.448,0,1,0,3.507,3.448A3.482,3.482,0,0,0,832.372,900.062Zm0,5.014a1.567,1.567,0,1,1,1.594-1.567A1.582,1.582,0,0,1,832.372,905.076Z" transform="translate(-770 -870)"/>
</svg>
