<svg xmlns="http://www.w3.org/2000/svg" width="49.91" height="52" viewBox="0 0 49.91 52">
  <metadata><?xpacket begin="﻿" id="W5M0MpCehiHzreSzNTczkc9d"?>
<x:xmpmeta xmlns:x="adobe:ns:meta/" x:xmptk="Adobe XMP Core 5.6-c138 79.159824, 2016/09/14-01:09:01        ">
   <rdf:RDF xmlns:rdf="http://www.w3.org/1999/02/22-rdf-syntax-ns#">
      <rdf:Description rdf:about=""/>
   </rdf:RDF>
</x:xmpmeta>
                                                                                                    
                                                                                                    
                                                                                                    
                                                                                                    
                                                                                                    
                                                                                                    
                                                                                                    
                                                                                                    
                                                                                                    
                                                                                                    
                                                                                                    
                                                                                                    
                                                                                                    
                                                                                                    
                                                                                                    
                                                                                                    
                                                                                                    
                                                                                                    
                                                                                                    
                                                                                                    
                           
<?xpacket end="w"?></metadata>
<defs>
    <style>
      .cls-1 {
        fill-rule: evenodd;
      }
    </style>
  </defs>
  <path id="Фігура_25" data-name="Фігура 25" class="cls-1" d="M1193.01,893.037a6.991,6.991,0,1,1,6.99-6.991A7,7,0,0,1,1193.01,893.037Zm0-11.984a4.994,4.994,0,1,0,4.99,4.993A5,5,0,0,0,1193.01,881.053Zm-10.83,7.35c-1.1-.739-2.32-1.667-3.5-2.556a43.044,43.044,0,0,0-6.16-4.185l1.9-3.415-0.03-.01,0.77-1.459h-10.75L1153.76,870l-1.23,1.578,9.96,6.642,3.07,11.205,1.5-2.007-2.3-8.639h7.22l-1.27,2.267a2.636,2.636,0,0,0-2.01.319l-0.26.23a2,2,0,0,0-.81,1.538c-0.02,1.189.68,3.126,9.24,11.266a1.659,1.659,0,0,1,.61,1.228,2.665,2.665,0,0,1-1.03,1.6l-0.14.12c-2.74,2.916-5.82,6.142-6.94,7.22-9.75-4.783-15.71-6.281-18.2-4.574a2.366,2.366,0,0,0-1.09,2.038c0,4.684.43,19.974,5.99,19.974,4.88,0,4.89-5.253,4.9-9.9v-0.59c3.87,3.386,11.42,9.838,14.8,6.172,3.36-3.625,15.67-15.709,16.85-16.858a1.7,1.7,0,0,0,.66-0.859C1193.76,898.57,1193.13,895.854,1182.18,888.4Zm9.13,10.916c-0.55.53-13.46,13.183-17,17.008-1.43,1.548-5.58-.669-12.32-6.571-1.51-1.329-1.74-1.528-2.38-1.249l-0.59.26-0.02.639c-0.03.9-.03,1.808-0.03,2.7-0.01,5.493-.29,7.9-2.9,7.9-2.46,0-3.99-9.328-3.99-18.076a0.556,0.556,0,0,1,.23-0.29,2.82,2.82,0,0,1,1.58-.339c2.01,0,6.29.928,15.18,5.353,0.84,0.409.84,0.419,8.64-7.88a4.537,4.537,0,0,0,1.75-3.006c0-.07.01-0.14,0.01-0.21a3.6,3.6,0,0,0-1.22-2.6c-8.09-7.69-8.64-9.437-8.64-9.727a1.057,1.057,0,0,1,.15-0.14,0.9,0.9,0,0,0,.1-0.09c1.09-.509,5.32,2.7,7.62,4.435,1.2,0.908,2.43,1.847,3.57,2.626,9.41,6.392,10.26,8.719,10.33,9.188Z" transform="translate(-1150.09 -870)"/>
</svg>
