<svg xmlns="http://www.w3.org/2000/svg" width="50" height="50" viewBox="0 0 50 50">
  <metadata><?xpacket begin="﻿" id="W5M0MpCehiHzreSzNTczkc9d"?>
<x:xmpmeta xmlns:x="adobe:ns:meta/" x:xmptk="Adobe XMP Core 5.6-c138 79.159824, 2016/09/14-01:09:01        ">
   <rdf:RDF xmlns:rdf="http://www.w3.org/1999/02/22-rdf-syntax-ns#">
      <rdf:Description rdf:about=""/>
   </rdf:RDF>
</x:xmpmeta>
                                                                                                    
                                                                                                    
                                                                                                    
                                                                                                    
                                                                                                    
                                                                                                    
                                                                                                    
                                                                                                    
                                                                                                    
                                                                                                    
                                                                                                    
                                                                                                    
                                                                                                    
                                                                                                    
                                                                                                    
                                                                                                    
                                                                                                    
                                                                                                    
                                                                                                    
                                                                                                    
                           
<?xpacket end="w"?></metadata>
<defs>
    <style>
      .cls-1 {
        fill: #383838;
        fill-rule: evenodd;
      }
    </style>
  </defs>
  <path id="_resuit_scales" class="cls-1" d="M553.454,1862H512.545a4.549,4.549,0,0,0-4.545,4.54v40.91a4.551,4.551,0,0,0,4.545,4.55h40.909a4.552,4.552,0,0,0,4.546-4.55v-40.91A4.55,4.55,0,0,0,553.454,1862Zm2.273,45.45a2.278,2.278,0,0,1-2.273,2.28H512.545a2.277,2.277,0,0,1-2.272-2.28v-40.91a2.275,2.275,0,0,1,2.272-2.27h40.909a2.275,2.275,0,0,1,2.273,2.27v40.91ZM533,1868.82a20.333,20.333,0,0,0-14.463,5.99,1.139,1.139,0,0,0,0,1.61l6.427,6.42a1.125,1.125,0,0,0,1.607,0,9.111,9.111,0,0,1,12.858,0,1.118,1.118,0,0,0,1.606,0l6.428-6.42a1.139,1.139,0,0,0,0-1.61A20.333,20.333,0,0,0,533,1868.82Zm7.192,11.65a11.131,11.131,0,0,0-10.37-2.07l-1.47-3.23a1.136,1.136,0,1,0-2.068.94l1.423,3.13a11.8,11.8,0,0,0-1.9,1.23l-4.837-4.83a18.174,18.174,0,0,1,24.057,0Z" transform="translate(-508 -1862)"/>
</svg>
