<svg xmlns="http://www.w3.org/2000/svg" width="20.97" height="21" viewBox="0 0 20.97 21">
  <metadata><?xpacket begin="﻿" id="W5M0MpCehiHzreSzNTczkc9d"?>
<x:xmpmeta xmlns:x="adobe:ns:meta/" x:xmptk="Adobe XMP Core 5.6-c138 79.159824, 2016/09/14-01:09:01        ">
   <rdf:RDF xmlns:rdf="http://www.w3.org/1999/02/22-rdf-syntax-ns#">
      <rdf:Description rdf:about=""/>
   </rdf:RDF>
</x:xmpmeta>
                                                                                                    
                                                                                                    
                                                                                                    
                                                                                                    
                                                                                                    
                                                                                                    
                                                                                                    
                                                                                                    
                                                                                                    
                                                                                                    
                                                                                                    
                                                                                                    
                                                                                                    
                                                                                                    
                                                                                                    
                                                                                                    
                                                                                                    
                                                                                                    
                                                                                                    
                                                                                                    
                           
<?xpacket end="w"?></metadata>
<defs>
    <style>
      .cls-1 {
        fill: #fee301;
        fill-rule: evenodd;
      }
    </style>
  </defs>
  <path id="_tel_ic" class="cls-1" d="M1311.97,56.891a1.478,1.478,0,0,0-2.23,0c-0.52.516-1.04,1.032-1.55,1.556a0.308,0.308,0,0,1-.43.079c-0.33-.184-0.69-0.332-1.02-0.533a16.3,16.3,0,0,1-3.89-3.54,9.507,9.507,0,0,1-1.39-2.233,0.315,0.315,0,0,1,.08-0.411c0.52-.5,1.03-1.018,1.54-1.534a1.476,1.476,0,0,0-.01-2.277c-0.4-.411-0.81-0.813-1.22-1.224s-0.83-.843-1.25-1.258a1.487,1.487,0,0,0-2.23,0c-0.52.516-1.03,1.044-1.56,1.551a2.533,2.533,0,0,0-.79,1.708,7.078,7.078,0,0,0,.56,3.116,18.751,18.751,0,0,0,3.36,5.6,20.674,20.674,0,0,0,6.88,5.388,10,10,0,0,0,3.82,1.11,2.8,2.8,0,0,0,2.4-.913c0.44-.5.94-0.953,1.42-1.429a1.49,1.49,0,0,0,.01-2.264C1313.64,58.552,1312.8,57.721,1311.97,56.891Zm-0.84-3.483,1.61-.275a7.226,7.226,0,0,0-6.12-5.939l-0.23,1.621A5.575,5.575,0,0,1,1311.13,53.409Zm2.52-7.009a11.867,11.867,0,0,0-6.81-3.4l-0.23,1.621a10.38,10.38,0,0,1,8.78,8.508l1.61-.275A11.922,11.922,0,0,0,1313.65,46.4Z" transform="translate(-1296.03 -43)"/>
</svg>
