<svg id="Група_2" data-name="Група 2" xmlns="http://www.w3.org/2000/svg" width="52" height="52" viewBox="0 0 52 52">
  <metadata><?xpacket begin="﻿" id="W5M0MpCehiHzreSzNTczkc9d"?>
<x:xmpmeta xmlns:x="adobe:ns:meta/" x:xmptk="Adobe XMP Core 5.6-c138 79.159824, 2016/09/14-01:09:01        ">
   <rdf:RDF xmlns:rdf="http://www.w3.org/1999/02/22-rdf-syntax-ns#">
      <rdf:Description rdf:about=""/>
   </rdf:RDF>
</x:xmpmeta>
                                                                                                    
                                                                                                    
                                                                                                    
                                                                                                    
                                                                                                    
                                                                                                    
                                                                                                    
                                                                                                    
                                                                                                    
                                                                                                    
                                                                                                    
                                                                                                    
                                                                                                    
                                                                                                    
                                                                                                    
                                                                                                    
                                                                                                    
                                                                                                    
                                                                                                    
                                                                                                    
                           
<?xpacket end="w"?></metadata>
<defs>
    <style>
      .cls-1 {
        fill-rule: evenodd;
      }
    </style>
  </defs>
  <path id="Фігура_24" data-name="Фігура 24" class="cls-1" d="M414,904h2v6h-2v-6Zm28-20v-8H428v-6H405v6H390v8h2v31h-2v7h52v-7h-2V884h2Zm-35-12h19v13H407V872Zm21,15v-3h10v8H394v-8h11v3h23Zm10,7v21H423V894h15Zm-17,0v21h-9V894h9Zm-11,0v21H394V894h16Zm-18-16h13v4H392v-4Zm48,42H392v-3h48v3Zm-12-38v-4h12v4H428Zm-21.809,16.411,1.618,1.177-8,11-1.618-1.177Zm27-1,1.618,1.177-8,11-1.618-1.177Zm1,6,1.618,1.177-5,7-1.618-1.175Zm-33-5,1.618,1.177-5,7-1.618-1.177Z" transform="translate(-390 -870)"/>
  <path id="TRX" class="cls-1" d="M413.5,875.007H409v0.647h1.869V881h0.765v-5.346H413.5v-0.647ZM417.935,881h0.824v-0.049l-1.369-2.544a1.758,1.758,0,0,0,.819-0.621,1.65,1.65,0,0,0,.294-0.976,1.685,1.685,0,0,0-.53-1.342,2.244,2.244,0,0,0-1.515-.461h-1.93V881H415.3v-2.424h1.369Zm-2.634-5.346h1.177a1.336,1.336,0,0,1,.93.3,1.1,1.1,0,0,1,.322.853,1.042,1.042,0,0,1-.338.816,1.3,1.3,0,0,1-.91.306H415.3v-2.276Zm4.939-.647h-0.9l1.846,2.972L419.3,881H420.2l1.441-2.338L423.078,881h0.912l-1.885-3.021,1.841-2.972h-0.9l-1.4,2.3Z" transform="translate(-390 -870)"/>
</svg>
