<?xml version="1.0" encoding="UTF-8"?> <svg xmlns="http://www.w3.org/2000/svg" width="38.767" height="47.769" viewBox="0 0 38.767 47.769"><g id="Сгруппировать_166" data-name="Сгруппировать 166" transform="translate(-275.094 701.13)"><path id="Контур_129" data-name="Контур 129" d="M488.149-690.876h0a4.89,4.89,0,0,0,4.757-3.844l.012-.055h-.188a14.883,14.883,0,0,1-2.036-.133,3.5,3.5,0,0,1-1.926-.7.718.718,0,0,1-.223-.525c.005-.328.233-.572.675-.724a4.878,4.878,0,0,1,1.522-.19,15.012,15.012,0,0,1,2.078.167l.066.01-.016-.065a4.883,4.883,0,0,0-.236-.707,4.838,4.838,0,0,0-2.654-2.618,4.838,4.838,0,0,0-3.727.025,4.861,4.861,0,0,0-2.972,4.481,4.837,4.837,0,0,0,1.424,3.444A4.837,4.837,0,0,0,488.149-690.876Z" transform="translate(-189.248)" stroke="#313131" stroke-width="1"></path><path id="Контур_130" data-name="Контур 130" d="M313.022-589.8a2.663,2.663,0,0,0-3.617-1.048l-4.643,2.557-5.454-3.89a2.667,2.667,0,0,0-.535-.3l-6.718-2.757a2.663,2.663,0,0,0-1.243-.189l-7.256.634a2.665,2.665,0,0,0-1.3.472l-5.524,3.869a2.663,2.663,0,0,0-.654,3.709,2.663,2.663,0,0,0,3.709.654l4.94-3.459,3.888-.34-6.578,8.82a2.662,2.662,0,0,0-.52,1.394,2.661,2.661,0,0,0,.152,1.937l3.905,8.031-5.932,7.351a2.663,2.663,0,0,0,.4,3.745,2.652,2.652,0,0,0,1.671.591A2.658,2.658,0,0,0,283.79-559l6.994-8.667a2.663,2.663,0,0,0,.322-2.837l-2.643-5.435.065-.026,6.842.4,2.439,9.644A2.663,2.663,0,0,0,301.045-564a2.663,2.663,0,0,0,1.929-3.235l-2.9-11.47a2.655,2.655,0,0,0-.154-.442l-.03-.066a2.663,2.663,0,0,0-2.273-1.563l-4.886-.284,4.469-6.082,5.835,4.162a2.661,2.661,0,0,0,1.547.495,2.661,2.661,0,0,0,1.285-.33l6.11-3.365A2.663,2.663,0,0,0,313.022-589.8Z" transform="translate(0 -95.851)" stroke="#313131" stroke-width="1"></path></g></svg> 