<?xml version="1.0" encoding="UTF-8"?> <svg xmlns="http://www.w3.org/2000/svg" width="39.683" height="48.552" viewBox="0 0 39.683 48.552"><g id="Сгруппировать_164" data-name="Сгруппировать 164" transform="translate(-663.26 -359.574)"><path id="Контур_123" data-name="Контур 123" d="M689.071,368.988h0a4.457,4.457,0,1,0-4.459-4.458A4.458,4.458,0,0,0,689.074,368.988Z" stroke="#313131" stroke-width="1"></path><path id="Контур_124" data-name="Контур 124" d="M699.473,380.878h0l0-.005h-4.089l-2.42-4.945a8.912,8.912,0,0,0-5.737-4.73l-6.6-1.963a8.877,8.877,0,0,0-7.507,1.592l-3.685,2.824a2.971,2.971,0,0,0,3.616,4.716l3.686-2.824a2.89,2.89,0,0,1,2.347-.57l1.365.406-3.479,8.114a5.957,5.957,0,0,0-.274.853L673,392.76h-6.211a2.972,2.972,0,1,0-.109,5.943h7.3a4.449,4.449,0,0,0,4.1-2.7,34.127,34.127,0,0,0,1.978-4.673l7.25,4.28-2.552,8.147a2.971,2.971,0,0,0,5.671,1.776l2.938-9.385a4.477,4.477,0,0,0-2.01-5.051l-5.687-3.356,2.908-7.268,1.882,3.847a4.483,4.483,0,0,0,4,2.5h5.014a2.971,2.971,0,0,0,0-5.942Z" stroke="#313131" stroke-width="1"></path></g></svg> 