<svg xmlns="http://www.w3.org/2000/svg" width="58" height="47" viewBox="0 0 58 47">
  <metadata><?xpacket begin="﻿" id="W5M0MpCehiHzreSzNTczkc9d"?>
<x:xmpmeta xmlns:x="adobe:ns:meta/" x:xmptk="Adobe XMP Core 5.6-c138 79.159824, 2016/09/14-01:09:01        ">
   <rdf:RDF xmlns:rdf="http://www.w3.org/1999/02/22-rdf-syntax-ns#">
      <rdf:Description rdf:about=""/>
   </rdf:RDF>
</x:xmpmeta>
                                                                                                    
                                                                                                    
                                                                                                    
                                                                                                    
                                                                                                    
                                                                                                    
                                                                                                    
                                                                                                    
                                                                                                    
                                                                                                    
                                                                                                    
                                                                                                    
                                                                                                    
                                                                                                    
                                                                                                    
                                                                                                    
                                                                                                    
                                                                                                    
                                                                                                    
                                                                                                    
                           
<?xpacket end="w"?></metadata>
<defs>
    <style>
      .cls-1 {
        fill-rule: evenodd;
      }
    </style>
  </defs>
  <path id="_2" data-name="2" class="cls-1" d="M439,2410s12.6,4.8,13,7,0,9,0,9h-9S436,2419.2,439,2410Zm30,0s-12.6,4.8-13,7,0,9,0,9h9S472,2419.2,469,2410Zm-28.4-19.48-7.075-7.11a1.386,1.386,0,0,0-1.968,0l-0.815.82a1.381,1.381,0,0,0,0,1.97l3.185,3.21h-7.652a1.155,1.155,0,0,0-.918.4,1.488,1.488,0,0,0-.354.99v1.4a1.488,1.488,0,0,0,.354.99,1.155,1.155,0,0,0,.918.4h7.652l-3.185,3.2a1.405,1.405,0,0,0,0,1.99l0.815,0.82a1.37,1.37,0,0,0,.978.4,1.384,1.384,0,0,0,.99-0.4l7.075-7.11a1.352,1.352,0,0,0,.4-0.99A1.283,1.283,0,0,0,440.6,2390.52Zm26.806,0,7.075-7.11a1.386,1.386,0,0,1,1.968,0l0.815,0.82a1.381,1.381,0,0,1,0,1.97l-3.185,3.21h7.652a1.157,1.157,0,0,1,.918.4,1.487,1.487,0,0,1,.353.99v1.4a1.487,1.487,0,0,1-.353.99,1.157,1.157,0,0,1-.918.4h-7.652l3.185,3.2a1.405,1.405,0,0,1,0,1.99l-0.815.82a1.41,1.41,0,0,1-1.968,0l-7.075-7.11a1.352,1.352,0,0,1-.4-0.99A1.283,1.283,0,0,1,467.4,2390.52ZM454,2379h-8l1,15s-6.77,6.95-7.867,12.1c-0.065.31,1.867,2.7,14.867,2.9s-12,.2,1,0,13.932-2.59,13.867-2.9c-1.1-5.15-7.867-12.1-7.867-12.1l1-15h-8Z" transform="translate(-425 -2379)"/>
</svg>
