<svg xmlns="http://www.w3.org/2000/svg" width="52.75" height="51.72" viewBox="0 0 52.75 51.72">
  <metadata><?xpacket begin="﻿" id="W5M0MpCehiHzreSzNTczkc9d"?>
<x:xmpmeta xmlns:x="adobe:ns:meta/" x:xmptk="Adobe XMP Core 5.6-c138 79.159824, 2016/09/14-01:09:01        ">
   <rdf:RDF xmlns:rdf="http://www.w3.org/1999/02/22-rdf-syntax-ns#">
      <rdf:Description rdf:about=""/>
   </rdf:RDF>
</x:xmpmeta>
                                                                                                    
                                                                                                    
                                                                                                    
                                                                                                    
                                                                                                    
                                                                                                    
                                                                                                    
                                                                                                    
                                                                                                    
                                                                                                    
                                                                                                    
                                                                                                    
                                                                                                    
                                                                                                    
                                                                                                    
                                                                                                    
                                                                                                    
                                                                                                    
                                                                                                    
                                                                                                    
                           
<?xpacket end="w"?></metadata>
<defs>
    <style>
      .cls-1 {
        fill-rule: evenodd;
      }
    </style>
  </defs>
  <path id="_7" data-name="7" class="cls-1" d="M478.407,3232.93h-8.956a2.666,2.666,0,0,0-2.667,2.36,1.477,1.477,0,0,0-.01.21,2.567,2.567,0,0,0,2.567,2.55h1.274a3.768,3.768,0,0,0,1.652-.37l0.666-.32L468.3,3242a14.67,14.67,0,0,0-22.32,7.25,14.245,14.245,0,0,0-5.026,2.25,14.772,14.772,0,0,0-3.652,20.53l-2.676,2.67-2.021-2.03a2.544,2.544,0,0,0-3.622,0,2.58,2.58,0,0,0,0,3.63l2.02,2.04-2.02,2.04a2.565,2.565,0,0,0,3.612,3.62l2.031-2.03,2.03,2.03a2.563,2.563,0,0,0,3.622-3.62l-2.03-2.04,2.657-2.68a14.681,14.681,0,0,0,22.36-7.31,14.725,14.725,0,0,0,8.647-22.72l4.707-4.7-0.368.65a3.808,3.808,0,0,0-.4,1.7v1.27a2.592,2.592,0,0,0,.04.48,2.561,2.561,0,0,0,2.955,2.09,2.67,2.67,0,0,0,2.12-2.67v-8.96A2.56,2.56,0,0,0,478.407,3232.93Zm-19.475,30.67a9.608,9.608,0,0,1-8.657-9.55V3254a9.637,9.637,0,0,1,8.657,9.58v0.02Zm-9.593,9.6a9.619,9.619,0,0,1-4.149-18.29,14.672,14.672,0,0,0,12.369,13.65A9.6,9.6,0,0,1,449.339,3273.2Zm14.688-10.49a14.717,14.717,0,0,0-12.349-13.67A9.6,9.6,0,1,1,464.027,3262.71Z" transform="translate(-428.219 -3232.94)"/>
</svg>
