<svg xmlns="http://www.w3.org/2000/svg" width="297" height="78" viewBox="0 0 297 78">
  <metadata><?xpacket begin="﻿" id="W5M0MpCehiHzreSzNTczkc9d"?>
<x:xmpmeta xmlns:x="adobe:ns:meta/" x:xmptk="Adobe XMP Core 5.6-c138 79.159824, 2016/09/14-01:09:01        ">
   <rdf:RDF xmlns:rdf="http://www.w3.org/1999/02/22-rdf-syntax-ns#">
      <rdf:Description rdf:about=""/>
   </rdf:RDF>
</x:xmpmeta>
                                                                                                    
                                                                                                    
                                                                                                    
                                                                                                    
                                                                                                    
                                                                                                    
                                                                                                    
                                                                                                    
                                                                                                    
                                                                                                    
                                                                                                    
                                                                                                    
                                                                                                    
                                                                                                    
                                                                                                    
                                                                                                    
                                                                                                    
                                                                                                    
                                                                                                    
                                                                                                    
                           
<?xpacket end="w"?></metadata>
<defs>
    <style>
      .cls-1 {
        fill-rule: evenodd;
      }
    </style>
  </defs>
  <path id="Фігура_5" data-name="Фігура 5" class="cls-1" d="M152.969,57.183C92.432,24.139,8.522,74.344,4.3,76.669S0.06,77.517.06,77.517s-0.847-6.672,4.024-8.685c4.854-2.005,99.316-51.547,150.9-11.223,0.1,0.08.057,0.347-.527,0.208A10.2,10.2,0,0,1,152.969,57.183Zm-62.477-42.7a58.732,58.732,0,0,1,22.917,8.384c2.363,1.094,2.249-.26,2.235-0.324a4.17,4.17,0,0,1,.838-3c1.713-2.491,5.148-.746,5.249-0.713,5.236,1.721,4.294-.256,4.275-0.323-0.418-1.443.265-1.091,0.352-1.109,2.28-.469,2.054-1.178,2.055-1.258,0.013-1.573-.555-2.757-1.07-2.923-0.362-.116-0.325-3.742-1.271-4.66C125.3,7.8,118.578,6,118.478,5.835c-0.726-1.2-3.346-4.161-3.842-3.85-0.565.353-3.825,2.622-4.041,2.664a57.752,57.752,0,0,0-20.95,8.562C89.7,13.171,88.022,14.128,90.492,14.481ZM48.559,42.144s-2.965.565-5.718,1.059a34.558,34.558,0,0,0-5.295,1.483c-0.282.071-1.977,0.212-2.33,0.636s-9.53,5.436-10.8,5.719a17.16,17.16,0,0,0-3.159,1.239c-4.422,2.068-1.289,4.268-1.289,4.268s4.094,0.494,4.659-.424,0.565-1.906,1.271-2.33S35,48.64,35.851,48.286,39.028,46.8,39.028,46.8l1.694-.847,1.906-.847S48.276,43.274,48.559,42.144ZM5.142,57.395a1.262,1.262,0,0,1,.212-1.483,7.521,7.521,0,0,1,1.694-1.695A2.349,2.349,0,0,0,7.9,53.158C8,52.629,9.8,51.252,9.8,51.252l2.33-1.906,1.483-1.272a6.634,6.634,0,0,1,3.278-1.288,10.143,10.143,0,0,0,2.017-.83c0.529-.318,2.753-2.118,2.753-2.118s4.661-4.324,6.77-5.31c0.256-.12,3.466.014,3.819-0.2a29.637,29.637,0,0,0,5.45-5.073c0.1-.15,4.786-5.729,7.257-5.517,2.447,0.21,16.464.281,28.256,6.391,0.112,0.058,2.241.67-3.265,1.235s-6.777,1.271-8.9,2.33-7.271,2.189-8.683,2.542c-1.23.308-7.872,1.151-10.4,1.97a13.375,13.375,0,0,1-4.421,1.359,32.73,32.73,0,0,0-6.781,2.739c-0.147.093-.613,1.156-7.977,1.533-0.157.008-2.156-.179-6.907,3.548-0.111.087-4.211,4.811-6.608,5.837A8.639,8.639,0,0,1,5.142,57.395ZM102.988,32.4s7.039,2.325,13.2.4a33.292,33.292,0,0,1,7.739.36c0.144,0.025,9.378.5,11.944,0.332a8.959,8.959,0,0,1,4.4,1.979,4.211,4.211,0,0,0,4.555-.3c0.1-.072,2.734-3.8-3.905-5.269a42.526,42.526,0,0,0-10.763-.513,48.915,48.915,0,0,1-4.933-.808c-2.488-.53-6.565-1.059-6.565-1.059a8.741,8.741,0,0,0-4.4-2.034c-0.152-.03-13.707-8.874-29.061-9.616a84.953,84.953,0,0,0-35,5.578c-0.114.043-4.9,0.348-7.047,0.683-0.2.031-6.453-1.23-10.053-1.389-3.573-.158-15.33.258-26.84-6.2-0.087-.049-2.184-1.479-3.52,1.242-0.044.089-.923,1.729,1.13,2.848,0.125,0.068.742,1.264,4.191,1.643a84.594,84.594,0,0,0,17.148,2.982,71.012,71.012,0,0,1,10.355,1.57c0.175,0.049,6.166,1.635,7.066,1.635s3.971,0.106,7.836,0,10.377,1.588,11.648,1.906,11.119,3.072,12.072,3.389a26.549,26.549,0,0,0,4.236.423,66.454,66.454,0,0,0,8.048,1.695,47.494,47.494,0,0,0,9.374-.571C96.206,33.228,102.988,32.4,102.988,32.4Zm10.589,4.236a7.525,7.525,0,0,1-2.118-1.695s3.685-.169,4.236-0.212,2.245-1.1,3.6-.848a50.826,50.826,0,0,0,13.895,2.731,4.046,4.046,0,0,1,4.083,3.786c0.01,0.084,1.205,2.5-4.3,1.39a5.537,5.537,0,0,1-2.027-1.129,36.758,36.758,0,0,0-8.684-3.177,19.978,19.978,0,0,1-4.794-.527"/>
  <path id="Pantera" class="cls-1" d="M171.8,34.029a9.014,9.014,0,0,0,6.006-1.835,6.22,6.22,0,0,0,2.17-5.015,7.088,7.088,0,0,0-.992-3.738,6.561,6.561,0,0,0-2.836-2.534,9.709,9.709,0,0,0-4.273-.892h-8.413V41.652H167.9V34.029h3.9Zm-3.9-10.4h4.073a3.48,3.48,0,0,1,2.577,1.011,3.576,3.576,0,0,1,.933,2.571,3.032,3.032,0,0,1-.925,2.378,3.9,3.9,0,0,1-2.688.832H167.9V23.626Zm26.157,18.026h4.724l-8.072-21.637h-4.117l-8.028,21.637h4.725l1.481-4.458h7.791Zm-5.406-16.169,2.71,8.1h-5.391Zm29.681-5.469h-4.428V34.281l-8.665-14.266H200.8V41.652h4.443V27.416l8.65,14.237h4.443V20.015Zm19.684,0H220.452v3.611h6.517V41.652h4.444V23.626h6.6V20.015Zm15.508,8.768h-8.532V23.626h9.983V20.015H240.551V41.652h14.456V38.071H244.994V32.245h8.532V28.783ZM269.64,41.652h4.769V41.444L269.744,32.6a6.524,6.524,0,0,0,2.9-2.355,6.681,6.681,0,0,0,.955-3.693,5.906,5.906,0,0,0-2.074-4.83,9.037,9.037,0,0,0-5.9-1.709h-8.012V41.652h4.443V33.731h3.54Zm-7.583-18.026h3.569a3.6,3.6,0,0,1,2.659.877,3.274,3.274,0,0,1,.866,2.407,3.06,3.06,0,0,1-.918,2.355,3.661,3.661,0,0,1-2.592.854h-3.584V23.626Zm28.586,18.026h4.724L287.3,20.015h-4.117L275.15,41.652h4.725l1.481-4.458h7.791Zm-5.407-16.169,2.711,8.1h-5.391Z"/>
  <path id="Ти_можеш_все_" data-name="Ти можеш все!" class="cls-1" d="M78.286,57.706a1.589,1.589,0,0,0-.482-0.769,2.274,2.274,0,0,0-.981-0.4,7.131,7.131,0,0,0-1.366-.238q-0.944-.1-1.364-0.118-0.179.035-.731,0.092T72,56.382a34.2,34.2,0,0,0-3.668.446l-1.014.144-0.8.169q-0.775.138-1.042,0.2a2.361,2.361,0,0,0-.876.291,0.854,0.854,0,0,0-.361.549,0.442,0.442,0,0,0,.268.594,3.182,3.182,0,0,0,1.273.06q0.268-.066,2-0.257l0.656-.075,1.461-.184,0.477-.041v0.03a0.865,0.865,0,0,0-.186.349,0.831,0.831,0,0,1-.128.288,0.483,0.483,0,0,1-.1.212,0.468,0.468,0,0,0-.1.242,0.693,0.693,0,0,1-.224.635,6.218,6.218,0,0,1-.482,1.151l-0.195.635q-1.636,5.53-1.713,6.072-0.109.453-.291,0.982a3.388,3.388,0,0,1-.269.651q-0.027.151-.123,0.483t-0.2.875a20.43,20.43,0,0,0-.824,2.51,9.118,9.118,0,0,0-.412,2.23,1.221,1.221,0,0,0,.3.728,0.752,0.752,0,0,0,.532.363,0.315,0.315,0,0,0,.456-0.311q0.1-.272.235-0.816l0.274-1.057q0.191-.784.512-1.767a11.226,11.226,0,0,1,.55-1.438l0.7-2.087q0.083-.272.292-0.922a8.7,8.7,0,0,1,.352-0.954q0.14-.423.417-1.36,0.387-1.329.833-2.735a12.952,12.952,0,0,1,.533-1.528,2.1,2.1,0,0,1,.163-0.694,4.73,4.73,0,0,0,.3-1.027,6.643,6.643,0,0,0,.641-2,14.986,14.986,0,0,0,1.522-.126,10.447,10.447,0,0,1,1.739.169,1.793,1.793,0,0,1,.726.373,1.938,1.938,0,0,0,.691.134,3.708,3.708,0,0,0,1.071-.235,0.329,0.329,0,0,1,.118-0.063,0.415,0.415,0,0,0,.162-0.109,0.265,0.265,0,0,0,.07-0.2,1.14,1.14,0,0,0-.036-0.269h0Zm9.82,17.116a1.168,1.168,0,0,0,.692.194,1.2,1.2,0,0,0,.609-0.179,0.667,0.667,0,0,0,.334-0.443,2.22,2.22,0,0,0-.045-0.659,0.825,0.825,0,0,0-.369-0.442,2.391,2.391,0,0,1-.911-1.869,5.19,5.19,0,0,1,.2-1.25,14.5,14.5,0,0,1,.719-1.862,8.836,8.836,0,0,0,.8-3.049,0.845,0.845,0,0,0-.225-0.655,0.613,0.613,0,0,1-.185-0.251q-0.094-.193-0.183-0.161l-0.478.041q-0.063-.118-0.269-0.009a0.834,0.834,0,0,0-.322.293,0.99,0.99,0,0,0-.518.882,0.907,0.907,0,0,0,.036.269,7.038,7.038,0,0,1-.459,2.111A10.149,10.149,0,0,1,85.6,71.1a2.882,2.882,0,0,1-1.77,1.062,0.625,0.625,0,0,1-.331-0.082,0.686,0.686,0,0,1-.376-0.741A12.669,12.669,0,0,1,84.2,67.41a6.385,6.385,0,0,0,.839-2.48,0.541,0.541,0,0,0-.1-0.328,0.729,0.729,0,0,0-.235-0.475,0.7,0.7,0,0,0-.5-0.168,1.061,1.061,0,0,0-.387.069q-0.4.64-1.316,2.551a16.241,16.241,0,0,0-.911,2.632,11.29,11.29,0,0,0-.264,2.137,3.233,3.233,0,0,0-.073.722,1.568,1.568,0,0,0,.213.805,2.651,2.651,0,0,0,.6.646,1.5,1.5,0,0,0,1.151.633,3.39,3.39,0,0,0,1.688-.73,5.081,5.081,0,0,0,1.351-1.052,1.918,1.918,0,0,0,.639-0.825l0.015,0.63a2.255,2.255,0,0,0,.074.628,4.3,4.3,0,0,0,1.124,2.014h0Zm34.012-4.815,1.043-1.465a0.414,0.414,0,0,1,.171-0.349,2.8,2.8,0,0,0,.235-0.2,16.184,16.184,0,0,1,1.107-1.256,0.2,0.2,0,0,1,.192-0.095,0.444,0.444,0,0,1,.168.146,17.233,17.233,0,0,0-.43,3.371l0.038,0.359a0.814,0.814,0,0,0,0,.525,2.672,2.672,0,0,1,.086.493,2.557,2.557,0,0,0,.157.942q0.176,0.521.242,0.76a4.82,4.82,0,0,1,.517.363,2.477,2.477,0,0,0,.455.3,1.017,1.017,0,0,0,.489-0.192,0.541,0.541,0,0,0,.125-0.423,3.933,3.933,0,0,0-.172-0.956,5.113,5.113,0,0,1-.147-1.167,7.65,7.65,0,0,1,.027-0.766q0.034-.435.03-0.646a15.485,15.485,0,0,1,.418-2.605,18.991,18.991,0,0,1,.659-2.491,0.577,0.577,0,0,0,.083-0.3,0.683,0.683,0,0,0-.19-0.446,3.924,3.924,0,0,0-.564-0.467,6.352,6.352,0,0,0-.651-0.345,0.426,0.426,0,0,0-.241-0.054,0.32,0.32,0,0,0-.3.157q-0.058.091-.9,0.981-2.277,2.394-3.09,3.463a0.815,0.815,0,0,1-.5.312q-0.3.007-.312-0.563a0.928,0.928,0,0,0,.023-0.271,2.348,2.348,0,0,0-.055-0.464,2.346,2.346,0,0,1-.056-0.464,0.888,0.888,0,0,1,.024-0.271,5.1,5.1,0,0,1-.269-1.254,1.807,1.807,0,0,1,.021-0.391l-1.187-.873a0.914,0.914,0,0,0-.27-0.024,0.559,0.559,0,0,0-.616.495c-0.019.041-.062,0.136-0.128,0.288a0.7,0.7,0,0,1-.247.321,3.472,3.472,0,0,0-.685.766,5.743,5.743,0,0,0-.564.823,8.916,8.916,0,0,0-.78,1.159l-0.375.579L113.5,71.2a0.381,0.381,0,0,1-.087.152,1.024,1.024,0,0,1-.176.139,0.984,0.984,0,0,1-.207.11,2.23,2.23,0,0,0,.322.953,5.961,5.961,0,0,0,.94.548q0.336,0.323.647-.435a3.46,3.46,0,0,1,.573-1.094q-0.03.031,0.648-1.065t1.11-1.8q0.434-.64.707-1.082t0.331-.563a0.991,0.991,0,0,1,.29-0.367,1.437,1.437,0,0,1,.447-0.1,5.628,5.628,0,0,1,.189,1.706q0.016,0.72,0,1.08c0,0.16,0,.34,0,0.54a4.006,4.006,0,0,0,.029.6,1.161,1.161,0,0,0,.5,1.068c0.122,0.117.224,0.21,0.305,0.278a0.836,0.836,0,0,0,.318.158c0.13,0.037.245,0.074,0.346,0.112,0.02-.02.093-0.087,0.22-0.2a0.971,0.971,0,0,0,.275-0.412,3.055,3.055,0,0,1,.457-0.9q0.318-.442.434-0.625h0Zm17.213,3.229a3.863,3.863,0,0,0,1.175-.253,5.093,5.093,0,0,0,1.136-.672,11.476,11.476,0,0,0,1.558-1.162,8.438,8.438,0,0,0,1.25-1.545,7.56,7.56,0,0,0,1.485-4.266,3.631,3.631,0,0,0-.354-1.717,2.3,2.3,0,0,0-1.142-.889A2.9,2.9,0,0,0,144,62.368a0.683,0.683,0,0,0-.376-0.1,4.138,4.138,0,0,0-.8.169,4.949,4.949,0,0,0-1.245.479,6.988,6.988,0,0,0-1.264.96,8.392,8.392,0,0,0-1.122,1.257,14.072,14.072,0,0,0-.94,1.372,7.435,7.435,0,0,0-.712,1.532,2.48,2.48,0,0,0-.214,1.07c0.045,0.219.008,0.33-.112,0.333a0.3,0.3,0,0,1-.087.107,0.124,0.124,0,0,0-.058.091,0.361,0.361,0,0,0,.124.162q0,0.06.021,0.27a0.892,0.892,0,0,1-.065.422,1.048,1.048,0,0,0-.023.3,2.979,2.979,0,0,0,1.031,1.9,4.41,4.41,0,0,0,.609.436,1.14,1.14,0,0,0,.571.107h0Zm2.8-3.246q-1.487,1.655-2.473,1.678a0.753,0.753,0,0,1-.619-0.256,1.089,1.089,0,0,1-.241-0.715,2.84,2.84,0,0,1,.27-1.237,21.57,21.57,0,0,1,1.342-2.747,8.115,8.115,0,0,1,1.511-1.881,2.187,2.187,0,0,1,1.361-.632,1.327,1.327,0,0,1,.6.136,1.25,1.25,0,0,1,.263,1.014,4.409,4.409,0,0,1-.121,1.233,9.973,9.973,0,0,1-.779,1.849,10.58,10.58,0,0,1-1.115,1.556h0Zm28.24-6.121a0.528,0.528,0,0,0,.14-0.393l0-.09a1.468,1.468,0,0,0-.374-0.636,3.292,3.292,0,0,0-.671-0.569,1.358,1.358,0,0,0-.416.13,5.063,5.063,0,0,0-.381.339q-0.584.644-1.592,1.628t-1.537,1.416a26.559,26.559,0,0,1-2.146,1.581l-0.3-.053q0.057-.061.51-2.473l0.351-1.629q0.189-.874-1.147-1.714a0.577,0.577,0,0,0-.271-0.114,0.325,0.325,0,0,0-.238.1,0.448,0.448,0,0,0-.114.213,0.725,0.725,0,0,0-.08.422l0,0.09,0.036,0.239a3.364,3.364,0,0,1-.1.753q-0.184,1.055-.348,1.749-0.242,1.146-.373,1.929-0.682-1.034-.929-1.359-0.156-.236-0.418-0.605t-0.665-.96a4.32,4.32,0,0,0-1.146-1.684,1.59,1.59,0,0,0-.722-0.163,0.645,0.645,0,0,0-.677.466c0.083,0.138.16,0.262,0.233,0.37s0.129,0.2.171,0.281q0.684,1.154.839,1.361a4.175,4.175,0,0,1,.572.782,6.365,6.365,0,0,0,.357.577l0.467,0.769q-0.234.246-.879,0.8a6.823,6.823,0,0,0-.762.678q-0.264.186-.734,0.587t-0.732.647q-0.644.645-1.345,1.322t-1.084.986a0.735,0.735,0,0,0-.431.73l0.681,1a3,3,0,0,0,.721.133,0.631,0.631,0,0,0,.533-0.252,11.832,11.832,0,0,1,1.777-2.022q0.729-.767,1.813-1.753,0.234-.215.483-0.461c0.165-.164.346-0.348,0.54-0.553a5.79,5.79,0,0,1,.864-0.17,7.335,7.335,0,0,1-.532,1.588q-0.369.8-.484,1.047a2.08,2.08,0,0,0,.169.806,1.625,1.625,0,0,0,.674.674l0.806-.049a2.236,2.236,0,0,0,.334-0.413,0.774,0.774,0,0,0,.066-0.377l-0.037-.3a2.069,2.069,0,0,1,.278-0.937,9.459,9.459,0,0,0,.364-1.059,3.482,3.482,0,0,1,.574-1,7.213,7.213,0,0,0,.459,1.07,7.032,7.032,0,0,0,.664.915,3.71,3.71,0,0,0,.758,1.063,9.133,9.133,0,0,0,1.313,1.17,2.664,2.664,0,0,0,1.195.572q0.088-.032.267-0.081a1.461,1.461,0,0,0,.3-0.112,0.214,0.214,0,0,0,.114-0.213,0.679,0.679,0,0,0-.1-0.268q-0.153-.146-1.008-0.907a6.91,6.91,0,0,1-1.353-1.589c-0.042-.079-0.119-0.2-0.233-0.37a2.482,2.482,0,0,1-.249-0.444,1.494,1.494,0,0,1-.087-0.523l2.17-1.851q0.467-.461,1.536-1.431t1.568-1.4h0Zm13.967,7.716a6.177,6.177,0,0,0,1.1-.911,2.82,2.82,0,0,0,.622-0.885q0.141-.378-0.128-0.372a2.266,2.266,0,0,1-.244-0.189,0.43,0.43,0,0,0-.272-0.129,0.489,0.489,0,0,0-.193.049,0.664,0.664,0,0,0-.22.185c-0.078.092-.136,0.158-0.175,0.2l-0.263.276a1.27,1.27,0,0,1-.323.248l-0.56.343a1.747,1.747,0,0,1-.8.259,5.3,5.3,0,0,1-.99-0.127q-1.02-.126-1.055-1.656a4.5,4.5,0,0,1,.016-0.6,6.687,6.687,0,0,1,.223-1.326,0.448,0.448,0,0,1,.4-0.369,1.439,1.439,0,0,1,.421.08,2.588,2.588,0,0,0,1.5.355,3.865,3.865,0,0,0,1.222-.209,6.265,6.265,0,0,0,1.908-1.545,3.61,3.61,0,0,0,.888-1.671,2.4,2.4,0,0,0-.788-1.722,1.541,1.541,0,0,0-.595-0.481,3.525,3.525,0,0,0-1.007-.231q-0.24-.024-0.45-0.05a2.992,2.992,0,0,0-.419-0.02,1.675,1.675,0,0,0-.86.32,5.687,5.687,0,0,0-1.853,1.349,8.921,8.921,0,0,0-1.549,2.182,5.908,5.908,0,0,0-.678,2.326q-0.039.9-.032,1.2a5.2,5.2,0,0,0,.214,1.465A3.105,3.105,0,0,0,179.984,71a3.235,3.235,0,0,0,1.144.964,2.967,2.967,0,0,0,1.428.327,2.617,2.617,0,0,0,1.778-.7h0Zm-0.178-6.358a3.08,3.08,0,0,1-1.132.207,1.466,1.466,0,0,1-1.172-.243,0.878,0.878,0,0,1,.314-0.638,8.806,8.806,0,0,1,.962-1.088A2.679,2.679,0,0,1,184.1,62.8a1.817,1.817,0,0,1,.537-0.073,1.086,1.086,0,0,1,.753.222,0.773,0.773,0,0,1,.283.594,1.49,1.49,0,0,1-.5.912,3.172,3.172,0,0,1-1.014.774h0Zm24.09-.682-1.134,1.407a1.43,1.43,0,0,1-.463.641q-0.058.062-.2,0.23a0.945,0.945,0,0,0-.2.35,3.725,3.725,0,0,0-.907.891c-0.039.041-.116,0.133-0.233,0.276a2.833,2.833,0,0,1-.424.415,2.472,2.472,0,0,1-.664.361,2.046,2.046,0,0,1-.227-0.745l0.025-.211,0.136-.6c0.017-.1.067-0.332,0.148-0.694a4.336,4.336,0,0,1,.35-1,13.468,13.468,0,0,0,.581-1.394,1.156,1.156,0,0,0,.056-0.812,2.2,2.2,0,0,0-.464-0.664,3.546,3.546,0,0,0-.669-0.45,0.574,0.574,0,0,0-.737.467,4.139,4.139,0,0,1-.688,1.276,15.47,15.47,0,0,0-.955,1.343,9.156,9.156,0,0,1-.695.976,10.107,10.107,0,0,1-.9,1.071l-0.467.491a3.571,3.571,0,0,1-1.7,1.33,0.173,0.173,0,0,1-.184-0.206,2.683,2.683,0,0,1,.393-1.09q0.139-.393.482-1.121l0.284-.667a4.246,4.246,0,0,1,1.033-1.885,2.575,2.575,0,0,0,.542-1.123q-0.155-.176-0.37-0.471a2.619,2.619,0,0,0-.43-0.47,0.972,0.972,0,0,0-.573-0.2q-0.747.017-1.649,2.379l-0.426.97-0.68,1.636a4.079,4.079,0,0,0-.283,1.957,2.9,2.9,0,0,0,.294,1.058,2.4,2.4,0,0,0,.645.735l0.61,0.481,0.956-.022q0.292-.247,1.023-1.014a15.074,15.074,0,0,1,1.2-1.168,2.567,2.567,0,0,0,.541-0.553c0.163-.224.265-0.366,0.3-0.427a2.909,2.909,0,0,1,.348-0.458,0.354,0.354,0,0,1,.295-0.157,0.96,0.96,0,0,0-.108.483,2.3,2.3,0,0,0,.1.6,10.322,10.322,0,0,0,.416,1.191,1.843,1.843,0,0,1,.582.587,5.161,5.161,0,0,0,.672.584,2.019,2.019,0,0,0,.389.021,1.892,1.892,0,0,0,1.273-.57,16.58,16.58,0,0,0,1.661-1.869A2.336,2.336,0,0,1,208.17,67.7a3.483,3.483,0,0,0,.924,2.409,3.2,3.2,0,0,1,.4.4,1.885,1.885,0,0,0,.4.366,1.507,1.507,0,0,0,.6.166,2.076,2.076,0,0,0,1.128-.356,3.692,3.692,0,0,0,.074-0.662,1.281,1.281,0,0,0-.226-0.745,2.445,2.445,0,0,0-.492.072,2.262,2.262,0,0,1-.432.07,0.682,0.682,0,0,1-.361-0.082,3.808,3.808,0,0,1-.173-1.016,7.112,7.112,0,0,1,.094-1.083,7.4,7.4,0,0,1,.2-0.95q0.151-.558.2-0.83a5.7,5.7,0,0,0,.3-1.267,1.892,1.892,0,0,0-1.255-1.231,0.368,0.368,0,0,0-.431.145,4.521,4.521,0,0,0-.447.716,3.734,3.734,0,0,0-.171.334l-0.114.243-0.146.153h0Zm30.423,6.732,0.973-.623a6.457,6.457,0,0,0,1.744-2.141q0.231-.4.743-1.518a2.458,2.458,0,0,0,.161-0.754q0.192-.725.278-0.937a12.523,12.523,0,0,1,.087-1.382,0.481,0.481,0,0,0-.131-0.507,3.026,3.026,0,0,0-1.425-.807,0.307,0.307,0,0,0-.282.082,1.344,1.344,0,0,1-.25.2,2.866,2.866,0,0,1,.227.76q0.037,0.314.062,1.364a2.868,2.868,0,0,0-.193.68,6.552,6.552,0,0,1-.163.709,7.509,7.509,0,0,1-1.149,2.037,4.806,4.806,0,0,1-.628.66,1.662,1.662,0,0,1-.666.3,0.449,0.449,0,0,1-.275-0.264,1.33,1.33,0,0,1-.07-0.418,13.747,13.747,0,0,1,.361-2.5,7.713,7.713,0,0,1,.551-2.023,1.058,1.058,0,0,0,.182-0.514,3.06,3.06,0,0,1,.179-0.664,1.076,1.076,0,0,1,.671-0.706,11.955,11.955,0,0,0,1.6-.757,12.452,12.452,0,0,0,2.382-1.736,11.415,11.415,0,0,0,3.82-4.2q0.483-1.092.651-1.576a2.514,2.514,0,0,0,.159-0.874,2.98,2.98,0,0,0-.509-1.308,2.182,2.182,0,0,0-.744-0.478,0.92,0.92,0,0,0-.676-0.119c-0.376.109-.644,0.185-0.8,0.229q-0.119.033-.565,0.148a1.4,1.4,0,0,0-.533.208q-0.176.184-.879,0.8a9.739,9.739,0,0,0-2.188,2.362,4.337,4.337,0,0,0-.83.965c-0.24.376-.38,0.594-0.418,0.655q-0.26.427-.578,0.884a8.928,8.928,0,0,0-.631,1.155q-0.428.881-.625,1.395a2.75,2.75,0,0,1-.783,1.039,0.857,0.857,0,0,0-.284.667l0,0.12a2.715,2.715,0,0,1-.064,1.082l-0.451,1.181a25.945,25.945,0,0,0-.83,4.191,1.067,1.067,0,0,0-.052.331,3.179,3.179,0,0,0,.17.866,4.617,4.617,0,0,0,.38.891,1.862,1.862,0,0,0,.763.687,1.937,1.937,0,0,0,.947.188c0.328-.017.523-0.027,0.582-0.029h0Zm7.846-18.818,0.139,0.837a2.305,2.305,0,0,1-.253.711q-0.2.38-.314,0.623a5.656,5.656,0,0,1-1.507,2.091,32.089,32.089,0,0,1-3.258,2.642,0.609,0.609,0,0,1-.5.312,1.829,1.829,0,0,1-.359-0.022,14.234,14.234,0,0,1,1.594-2.813,21.642,21.642,0,0,1,1.9-2.49,9.887,9.887,0,0,1,1.215-1.124,8.578,8.578,0,0,1,1.343-.767h0Zm9.665,18.169a7.026,7.026,0,0,0,1.467-.589,2.271,2.271,0,0,0,.9-0.576,0.139,0.139,0,0,1,.086-0.152,0.67,0.67,0,0,1,.209-0.035,2.067,2.067,0,0,0,.884-0.546,9.83,9.83,0,0,0,1.169-1.153,1.316,1.316,0,0,0,.461-0.761,0.244,0.244,0,0,1,.028-0.091,0.12,0.12,0,0,1,.118-0.063c0.158-.083.155-0.188-0.007-0.315a1.866,1.866,0,0,0-.635-0.3,1.578,1.578,0,0,0-.566.088,1,1,0,0,0-.38.414,1.611,1.611,0,0,0-.441.325q-0.234.231-.351,0.323a17.031,17.031,0,0,1-2.09,1.429,3.222,3.222,0,0,1-1.548.306,2.04,2.04,0,0,1-.629-0.045,0.327,0.327,0,0,1-.11-0.208,2.06,2.06,0,0,1-.056-0.479,5,5,0,0,1,.125-1.053,13.385,13.385,0,0,1,1.462-4A6.063,6.063,0,0,1,258.348,61a1.065,1.065,0,0,1,.476-0.131q0.448-.01.462,0.589a2.672,2.672,0,0,1-.075.632q-0.108.513-.217,0.935a2.953,2.953,0,0,0-.108.513,1.018,1.018,0,0,0,.309.413,0.6,0.6,0,0,0,.363.172A0.107,0.107,0,0,0,259.675,64q0-.18.324-0.188a0.757,0.757,0,0,0,.543-0.433,2.755,2.755,0,0,0,.381-1,1.591,1.591,0,0,0,.132-0.723,2.9,2.9,0,0,0-.171-0.941,0.515,0.515,0,0,0-.339-0.427l-0.153-.147a0.889,0.889,0,0,0-.539-0.648,3.371,3.371,0,0,0-1.071-.425,3.519,3.519,0,0,0-1.4.3,3.118,3.118,0,0,0-.969.743q-0.526.552-1.253,1.44a11.063,11.063,0,0,0-1.7,3.311,7.884,7.884,0,0,0-.507,3.283,2.422,2.422,0,0,0,2.6,2.55,4.8,4.8,0,0,0,.626-0.075h0Zm20.071-1.189a6.169,6.169,0,0,0,1.1-.911,2.82,2.82,0,0,0,.622-0.885q0.141-.378-0.128-0.372a2.266,2.266,0,0,1-.244-0.189,0.428,0.428,0,0,0-.272-0.129,0.493,0.493,0,0,0-.193.049,0.674,0.674,0,0,0-.22.185c-0.078.092-.136,0.158-0.175,0.2l-0.263.276a1.253,1.253,0,0,1-.323.248l-0.56.343a1.741,1.741,0,0,1-.8.259,5.277,5.277,0,0,1-.99-0.127q-1.02-.126-1.056-1.656a4.5,4.5,0,0,1,.016-0.6,6.687,6.687,0,0,1,.223-1.325,0.448,0.448,0,0,1,.395-0.369,1.433,1.433,0,0,1,.421.08,2.592,2.592,0,0,0,1.5.355,3.859,3.859,0,0,0,1.221-.209,6.266,6.266,0,0,0,1.908-1.545,3.6,3.6,0,0,0,.888-1.671,2.39,2.39,0,0,0-.788-1.722,1.545,1.545,0,0,0-.594-0.481,3.525,3.525,0,0,0-1.008-.232c-0.16-.016-0.31-0.033-0.449-0.049a3,3,0,0,0-.42-0.02,1.669,1.669,0,0,0-.859.32,5.676,5.676,0,0,0-1.853,1.349,8.894,8.894,0,0,0-1.549,2.182,5.927,5.927,0,0,0-.679,2.326q-0.039.9-.032,1.2a5.2,5.2,0,0,0,.214,1.465,3.122,3.122,0,0,0,.593,1.066,3.235,3.235,0,0,0,1.144.964,2.969,2.969,0,0,0,1.429.327,2.619,2.619,0,0,0,1.778-.7h0Zm-0.179-6.358a3.075,3.075,0,0,1-1.131.206,1.463,1.463,0,0,1-1.172-.243,0.873,0.873,0,0,1,.314-0.638,8.788,8.788,0,0,1,.961-1.088,2.672,2.672,0,0,1,.972-0.668,1.8,1.8,0,0,1,.536-0.073,1.085,1.085,0,0,1,.753.222,0.769,0.769,0,0,1,.283.594,1.485,1.485,0,0,1-.5.912,3.15,3.15,0,0,1-1.014.774h0Zm14.91,1.963a0.544,0.544,0,0,0,.279-0.247,5.341,5.341,0,0,0,.085-0.842,19.044,19.044,0,0,1,1.009-4.165,7.725,7.725,0,0,0,.4-1,2.5,2.5,0,0,0,.135-0.6,1,1,0,0,1,.025-0.2,0.136,0.136,0,0,1,.117-0.138,0.648,0.648,0,0,0,.158-0.274,1.562,1.562,0,0,1,.07-0.212,3.47,3.47,0,0,1,.31-0.8q0.314-.683.572-1.139c0.056-.141.131-0.318,0.227-0.53a1.291,1.291,0,0,0,.139-0.438,3.959,3.959,0,0,1,.455-1l0.372-.729c0.075-.162.219-0.435,0.429-0.82s0.391-.754.543-1.108a2.83,2.83,0,0,0,.246-0.981,3.677,3.677,0,0,0-.061-0.674,0.859,0.859,0,0,0-.264-0.429l-0.43-.47a0.766,0.766,0,0,0-.475.131,0.422,0.422,0,0,0-.528.432,19.31,19.31,0,0,1-.979,2.9,28.974,28.974,0,0,1-1.476,3.425,0.493,0.493,0,0,1-.069.227,0.48,0.48,0,0,0-.07.2,0.872,0.872,0,0,1-.112.318,0.84,0.84,0,0,0-.113.318,1.135,1.135,0,0,0-.214.41,1.6,1.6,0,0,0-.092.557,0.77,0.77,0,0,1-.125.423,0.36,0.36,0,0,1-.249.216q-0.2.425-.51,1.227a13.3,13.3,0,0,0-.447,1.316,3.242,3.242,0,0,1-.39,1.269,7.2,7.2,0,0,0-.227,1.806,2.226,2.226,0,0,0,.36,1.312,0.816,0.816,0,0,0,.9.309h0Zm-1.5,4.836a2.951,2.951,0,0,0,.9-0.681,1.108,1.108,0,0,0,.3-0.727,1.347,1.347,0,0,0-.833-1.091,3.032,3.032,0,0,0-.723-0.193,2.046,2.046,0,0,0-.858.38,1.842,1.842,0,0,0-.985,1.373,1.211,1.211,0,0,0,.438.83,1.623,1.623,0,0,0,.9.339,2.753,2.753,0,0,0,.862-0.23h0Z"/>
  <path id="TRX_-_club" data-name="TRX - club" class="cls-1" d="M171.215,0.9H159.223V2.02h5.332V16.544h1.317V2.02h5.343V0.9Zm12.108,15.641h1.4V16.4l-3.9-6.66a4.486,4.486,0,0,0,2.355-1.588,4.244,4.244,0,0,0,.878-2.65,4.242,4.242,0,0,0-1.4-3.391A5.767,5.767,0,0,0,178.763.9H173.7V16.544h1.328V10.023h4.529Zm-8.3-14.523h3.715a4.337,4.337,0,0,1,2.944.915,3.228,3.228,0,0,1,1.05,2.571,3.215,3.215,0,0,1-1.007,2.453,3.731,3.731,0,0,1-2.666.947h-4.036V2.02ZM188,0.9h-1.574L191.6,8.616l-5.331,7.928h1.563l4.561-6.832,4.539,6.832h1.585L193.2,8.616l5.16-7.713h-1.574L192.392,7.52Zm22.077,8.2H204.95v1.085h5.129V9.1Zm9.2,5.328a5.572,5.572,0,0,1-.958-3.47V10.582a5.7,5.7,0,0,1,.958-3.523,3.275,3.275,0,0,1,5.926,1.783h1.231a4.159,4.159,0,0,0-1.322-3,4.461,4.461,0,0,0-3.143-1.139,4.729,4.729,0,0,0-2.617.72,4.634,4.634,0,0,0-1.719,2.041,7.3,7.3,0,0,0-.6,3.04v0.387a6.439,6.439,0,0,0,1.333,4.275,4.467,4.467,0,0,0,3.613,1.59,4.874,4.874,0,0,0,2.168-.494,4.158,4.158,0,0,0,1.622-1.37,3.649,3.649,0,0,0,.664-1.939h-1.231a2.669,2.669,0,0,1-.98,1.96,3.376,3.376,0,0,1-2.243.757A3.211,3.211,0,0,1,219.281,14.427Zm11.15-14.384h-1.284v16.5h1.284V0.043Zm10.953,16.5h1.242V4.92h-1.285v8.411a3.28,3.28,0,0,1-3.522,2.31q-2.677,0-2.677-3.319V4.92h-1.274v7.562a4.739,4.739,0,0,0,.985,3.2,3.579,3.579,0,0,0,2.816,1.08,4.159,4.159,0,0,0,3.694-1.686Zm13.9-5.887a7.1,7.1,0,0,0-1.194-4.377,3.861,3.861,0,0,0-3.249-1.574,4.023,4.023,0,0,0-3.619,1.9V0.043h-1.274v16.5h1.2l0.054-1.59a4.158,4.158,0,0,0,3.661,1.8,3.827,3.827,0,0,0,3.223-1.6,7.019,7.019,0,0,0,1.2-4.313V10.657ZM253.1,14.384a2.873,2.873,0,0,1-2.478,1.257,3.432,3.432,0,0,1-3.405-2.191V8.208a3.687,3.687,0,0,1,1.3-1.778,3.516,3.516,0,0,1,2.087-.607,2.9,2.9,0,0,1,2.506,1.251,6.074,6.074,0,0,1,.888,3.55A6.489,6.489,0,0,1,253.1,14.384Z"/>
</svg>
