<?xml version="1.0" encoding="utf-8"?><svg viewBox="0 0 72 52" xmlns="http://www.w3.org/2000/svg" xmlns:xlink="http://www.w3.org/1999/xlink"><style>:root>svg{display:none}:root>svg:target{display:block}</style><svg viewBox="0 0 34 50" id="battary" xmlns="http://www.w3.org/2000/svg"><defs><style>.acls-1{fill:#383838;fill-rule:evenodd}</style></defs><path id="a_resuit_battary" class="acls-1" d="M803.512 1870.87a1.031 1.031 0 011.068-1h6.531v-4.31a1.037 1.037 0 011.068-1h11.643a1.036 1.036 0 011.066 1v4.31h6.533a1.029 1.029 0 011.066 1v37.57a1.036 1.036 0 01-1.066 1H804.58a1.037 1.037 0 01-1.068-1v-37.57m-2.512-.37v38.43a3.18 3.18 0 003.273 3.07h27.454a3.181 3.181 0 003.273-3.07v-38.43a3.183 3.183 0 00-3.273-3.08h-4.5v-2.35a3.18 3.18 0 00-3.272-3.07h-11.91a3.18 3.18 0 00-3.272 3.07v2.35h-4.5a3.18 3.18 0 00-3.273 3.08zm25.75 15.25h-7.5v-7.5a1.25 1.25 0 00-2.5 0v7.5h-7.5a1.25 1.25 0 000 2.5h7.5v7.5a1.25 1.25 0 002.5 0v-7.5h7.5a1.25 1.25 0 000-2.5z" transform="translate(-801 -1862)"/></svg><svg viewBox="0 0 21 21" id="clock" xmlns="http://www.w3.org/2000/svg"><defs><style>.bcls-1{fill:#fee301;fill-rule:evenodd}</style></defs><path id="b_clock_ic" class="bcls-1" d="M804.5 43A10.5 10.5 0 10815 53.5 10.5 10.5 0 00804.5 43zm.725 11.784a.774.774 0 01-.009.083c0 .021 0 .042-.008.062s-.013.042-.02.064-.016.051-.026.075a.062.062 0 000 .013.755.755 0 01-.054.1v.006a.686.686 0 01-.077.092L805 55.3a.757.757 0 01-.077.063l-.025.018a.719.719 0 01-.109.059.216.216 0 01-.025.009.819.819 0 01-.1.03l-.036.007a.746.746 0 01-.131.013h-.026a.746.746 0 01-.125-.013l-.037-.012a.781.781 0 01-.109-.037h-.012l-4.026-1.9a.726.726 0 11.62-1.314l2.99 1.41v-6.276a.726.726 0 111.452 0v7.413l.001.013z" transform="translate(-794 -43)"/></svg><svg viewBox="0 0 57 52" id="computer" xmlns="http://www.w3.org/2000/svg"><defs><style>.ccls-1{fill-rule:evenodd}</style></defs><path id="cForma_1" data-name="Forma 1" class="ccls-1" d="M825.317 1023.29v1.13h-53.634v-31.435a.283.283 0 01.28-.284h53.073a.283.283 0 01.281.284v30.3zm1.683-30.3a1.977 1.977 0 00-1.964-1.99h-53.073a1.977 1.977 0 00-1.963 1.985v36.945a1.975 1.975 0 001.963 1.98h16.981l-1.268 6.02h-1.768a2.007 2.007 0 00-1.989 2.01v1.05a2 2 0 001.989 2.01h23.809a2 2 0 001.989-2.01v-1.05a2.008 2.008 0 00-1.989-2.01h-1.95l-1.269-6.02h18.538a1.975 1.975 0 001.964-1.98v-36.945zm-19.915 46.655h2.631a.309.309 0 01.306.3v1.05a.311.311 0 01-.306.31h-23.809a.311.311 0 01-.305-.31v-1.05a.309.309 0 01.305-.3h21.178zm-17.688-1.71l1.268-6.02h14.113l1.268 6.02H789.4zm35.92-8a.277.277 0 01-.281.28h-53.073a.277.277 0 01-.28-.28v-3.81h53.634v3.81zm-14.409-26.45h-7.414v-6.688a.845.845 0 00-.841-.851h-16.511a.846.846 0 00-.842.851v16.7a.846.846 0 00.842.85h7.414v6.68a.845.845 0 00.841.85h16.511a.846.846 0 00.842-.85v-16.69a.846.846 0 00-.842-.857zm-17.352.85v8.3h-6.573v-14.993h14.828v5.838H794.4a.845.845 0 00-.844.85zm8.255.85v7.45h-6.572v-7.45h6.572zm8.256 14.99h-14.828v-5.83h7.414a.845.845 0 00.841-.85v-8.31h6.572v14.99zm10.125-22.975h-3.273a.846.846 0 00-.841.851v10.316a.845.845 0 00.841.85h3.273a.845.845 0 00.841-.85v-10.313a.846.846 0 00-.841-.854zm-.842 10.317h-1.589v-8.615h1.589v8.615zm.842 3.46h-3.273a.855.855 0 000 1.71h3.273a.855.855 0 000-1.707zm0 3.47h-3.273a.85.85 0 000 1.7h3.273a.85.85 0 000-1.697zm0 3.46h-3.273a.845.845 0 00-.841.85.853.853 0 00.841.86h3.273a.853.853 0 00.841-.86.845.845 0 00-.841-.847zm-39.757-22.473h-4.208a.846.846 0 00-.841.851v4.252a.845.845 0 00.841.85h4.208a.845.845 0 00.841-.85v-4.252a.846.846 0 00-.841-.848zm-.842 4.255h-2.524v-2.553h2.524v2.553zm.842 2.378h-4.208a.845.845 0 00-.841.85v4.26a.845.845 0 00.841.85h4.208a.845.845 0 00.841-.85v-4.26a.845.845 0 00-.841-.847zm-.842 4.26h-2.524v-2.55h2.524v2.55zm.842 2.38h-4.208a.845.845 0 00-.841.85v4.26a.845.845 0 00.841.85h4.208a.845.845 0 00.841-.85v-4.26a.845.845 0 00-.841-.847zm-.842 4.25h-2.524v-2.55h2.524v2.55zm.842 2.39h-4.208a.845.845 0 00-.841.85v4.25a.845.845 0 00.841.85h4.208a.845.845 0 00.841-.85v-4.25a.845.845 0 00-.841-.847zm-.842 4.25h-2.524v-2.55h2.524v2.55z" transform="translate(-770 -991)"/></svg><svg viewBox="0 0 59 52" id="discounts" xmlns="http://www.w3.org/2000/svg"><defs><style>.dcls-1{fill-rule:evenodd}</style></defs><path id="d_perevagi_znizki" class="dcls-1" d="M1204.44 991h-49.88a4.545 4.545 0 00-4.56 4.514v29.256a4.55 4.55 0 004.56 4.52h18.47a.86.86 0 100-1.72h-18.47a2.821 2.821 0 01-2.83-2.8v-29.256a2.819 2.819 0 012.83-2.8h49.88a2.819 2.819 0 012.83 2.8v29.256a.865.865 0 001.73 0v-29.256a4.545 4.545 0 00-4.56-4.514zm-30.48 30.17h-16.63a.855.855 0 100 1.71h16.63a.855.855 0 100-1.71zm-6.53-15.6v-3.66a2.7 2.7 0 00-2.71-2.682h-5.54a2.7 2.7 0 00-2.71 2.682v3.66a2.7 2.7 0 002.71 2.69h5.54a2.7 2.7 0 002.71-2.69zm-9.23 0v-.97h.98a.855.855 0 100-1.71h-.98v-.98a.98.98 0 01.98-.97h1.9v5.6h-1.9a.973.973 0 01-.98-.97zm6.52.97h-1.9v-5.6h1.9a.98.98 0 01.98.97v.98h-.98a.855.855 0 100 1.71h.98v.97a.973.973 0 01-.98.97zm-8.25 10a.865.865 0 001.73 0v-1.83a.86.86 0 00-.87-.85.851.851 0 00-.86.85v1.83zm2.77-1.83v1.83a.865.865 0 001.73 0v-1.83a.86.86 0 00-.87-.85.851.851 0 00-.86.85zm2.77 0v1.83a.865.865 0 001.73 0v-1.83a.865.865 0 00-1.73 0zm2.77 0v1.83a.865.865 0 001.73 0v-1.83a.865.865 0 00-1.73 0zm5.43 1.83v-1.83a.87.87 0 00-1.74 0v1.83a.87.87 0 001.74 0zm2.77 0v-1.83a.87.87 0 00-1.74 0v1.83a.87.87 0 001.74 0zm1.9-2.68a.851.851 0 00-.86.85v1.83a.865.865 0 001.73 0v-1.83a.86.86 0 00-.87-.85zm3.64 2.68v-1.83a.86.86 0 00-.87-.85.851.851 0 00-.86.85v1.83a.865.865 0 001.73 0zm19.45-8.28a4.516 4.516 0 100-9.032h-5.54a4.516 4.516 0 100 9.032h5.54zm-8.37-4.52a2.821 2.821 0 012.83-2.8h5.54a2.8 2.8 0 110 5.6h-5.54a2.815 2.815 0 01-2.83-2.8zm.98 10.12a14.571 14.571 0 1014.73 14.57 14.663 14.663 0 00-14.73-14.57zm0 27.42a12.856 12.856 0 1112.99-12.85 12.934 12.934 0 01-12.99 12.85zm7.08-19.86a.875.875 0 00-1.22 0l-12.93 12.8a.845.845 0 000 1.21.846.846 0 001.22 0l12.93-12.8a.845.845 0 000-1.21zm-11.23 6.04a4.06 4.06 0 10-4.1-4.06 4.084 4.084 0 004.1 4.06zm0-6.4a2.34 2.34 0 11-2.37 2.34 2.354 2.354 0 012.37-2.34zm9.23 7.43a4.055 4.055 0 104.1 4.05 4.067 4.067 0 00-4.1-4.05zm0 6.4a2.345 2.345 0 112.37-2.35 2.362 2.362 0 01-2.37 2.35z" transform="translate(-1150 -991)"/></svg><svg viewBox="0 0 52 52" id="grafik" xmlns="http://www.w3.org/2000/svg"><defs><style>.ecls-1{fill-rule:evenodd}</style></defs><path id="e_perevagi_grafik_ic" class="ecls-1" d="M428.929 1026.95v-5.24a.765.765 0 10-1.53 0v5.24a2.329 2.329 0 00-1.215 3.39l-2.4 2.62a.768.768 0 00.563 1.29.745.745 0 00.564-.25l2.452-2.68a2.362 2.362 0 00.8.14 2.322 2.322 0 00.766-4.51zm-.765 2.98a.785.785 0 11.781-.79.783.783 0 01-.781.79zm10.621-9.68v-14.14a.809.809 0 00.027-.2v-8.316a.767.767 0 00-.766-.769h-4.78v-2.776a3.036 3.036 0 10-6.072 0v2.776h-25.55v-2.776a3.036 3.036 0 10-6.072 0v2.776h-4.807a.766.766 0 00-.765.769v37.136a.771.771 0 00.765.77h25.158a13.821 13.821 0 1022.862-15.25zm-10.061-26.2a1.506 1.506 0 113.012 0v6.011a1.528 1.528 0 01-.031.3 1.505 1.505 0 01-2.981-.3v-6.011zm-31.622 0a1.506 1.506 0 113.012 0v6.011a1.506 1.506 0 11-3.012 0v-6.011zm-5.545 4.313h4.015v1.7a3.036 3.036 0 106.072 0v-1.7h25.55v1.7a3.036 3.036 0 106.072 0v-1.7h3.989v6.778h-45.7v-6.778zm-.027 35.6v-27.28h45.725v11.99a14.054 14.054 0 00-3.377-2.18l-.138-.06-.139-.06c-.082-.03-.164-.07-.247-.1-.01 0-.021-.01-.031-.01a12.823 12.823 0 00-2.124-.66v-4.52a.771.771 0 00-.765-.77H425.5a.771.771 0 00-.765.77v4.62a13.881 13.881 0 00-10.36 13.43V1029.553c0 .09.006.18.011.27v.07l.019.29v.03a13.668 13.668 0 00.82 3.75H391.53zm38.139-22.11v3.41h-3.4v-3.41h3.4zm-1.48 29.61a12.316 12.316 0 01-12.216-11.07v-.01c-.01-.09-.019-.19-.026-.29 0-.02 0-.04-.005-.06 0-.09-.011-.17-.015-.25 0-.05 0-.1-.006-.14 0-.06 0-.12-.007-.18v-.33a12.318 12.318 0 0112.28-12.33h.327c.019 0 .038.01.057.01a2.491 2.491 0 01.273.01h.043c.1.01.192.01.288.02h.018a12.306 12.306 0 014.06 1.06l.131.06.134.06.234.12a.024.024 0 00.023.01 12.34 12.34 0 01-5.593 23.307zm6.641-5.01a.767.767 0 00-1.074-.13 8.97 8.97 0 01-5.567 1.91 9.108 9.108 0 01-7.238-14.58.775.775 0 00-.149-1.08.767.767 0 00-1.072.15 10.651 10.651 0 008.459 17.05 10.444 10.444 0 006.508-2.24.772.772 0 00.133-1.083zm-6.641-17.96a10.472 10.472 0 00-6.6 2.31.771.771 0 00-.122 1.08.76.76 0 001.075.13 8.914 8.914 0 015.644-1.98 9.092 9.092 0 019.066 9.1 9 9 0 01-1.975 5.67.769.769 0 00.12 1.08.724.724 0 00.477.17.764.764 0 00.6-.29 10.649 10.649 0 00-8.285-17.273zm-24.855-8.18H398.4a.771.771 0 00-.765.77v4.95a.764.764 0 00.765.77h4.93a.765.765 0 00.765-.77v-4.95a.771.771 0 00-.761-.773zm-.765 4.95h-3.4v-3.41h3.4v3.41zm9.8-4.95h-4.93a.771.771 0 00-.765.77v4.95a.765.765 0 00.765.77h4.93a.764.764 0 00.765-.77v-4.95a.771.771 0 00-.767-.773zm-.765 4.95h-3.4v-3.41h3.4v3.41zm9.8-4.95h-4.93a.771.771 0 00-.765.77v4.95a.764.764 0 00.765.77h4.93a.765.765 0 00.765-.77v-4.95a.771.771 0 00-.769-.773zm-.765 4.95h-3.4v-3.41h3.4v3.41zm-17.3 5.68H398.4a.764.764 0 00-.765.77v4.95a.771.771 0 00.765.77h4.93a.771.771 0 00.765-.77v-4.95a.765.765 0 00-.761-.773zm-.765 4.95h-3.4v-3.41h3.4v3.41zm9.8-4.95h-4.93a.765.765 0 00-.765.77v4.95a.771.771 0 00.765.77h4.93a.771.771 0 00.765-.77v-4.95a.764.764 0 00-.772-.773zm-.765 4.95h-3.4v-3.41h3.4v3.41z" transform="translate(-390 -991)"/></svg><svg viewBox="0 0 52 50" id="like" xmlns="http://www.w3.org/2000/svg"><defs><style>.fcls-1{fill:#383838;fill-rule:evenodd}</style></defs><path id="f_resuit_like" class="fcls-1" d="M1414 1891.89a4.86 4.86 0 00-1.41-3.42 5.42 5.42 0 001.39-4.15 5.612 5.612 0 00-5.65-4.93h-13.38a31.456 31.456 0 001.72-8.69c0-4.72-4-8.7-6.5-8.7a6.845 6.845 0 00-3.93 1.32 1.091 1.091 0 00-.41.85v7.37l-6.24 13.57-.26.13v-.41a1.084 1.084 0 00-1.08-1.09h-10.83a5.433 5.433 0 00-5.42 5.43v17.4a5.433 5.433 0 005.42 5.43h6.5a5.442 5.442 0 005.1-3.59 14.084 14.084 0 005.73 1.42h19.89a4.892 4.892 0 004.52-7.07 4.849 4.849 0 002.67-4.34 4.788 4.788 0 00-.51-2.18 4.873 4.873 0 002.68-4.35zm-36.83 14.68a3.265 3.265 0 01-3.25 3.26h-6.5a3.258 3.258 0 01-3.25-3.26v-17.4a3.258 3.258 0 013.25-3.26v.01h9.74v1.09c0 .01.01.01.01.02v19.54zm32.26-11.99a1.089 1.089 0 00-.62 1.87 2.692 2.692 0 01-1.55 4.65 1.083 1.083 0 00-.9.73 1.118 1.118 0 00.28 1.14 2.662 2.662 0 01.79 2.59 2.808 2.808 0 01-2.79 2.09h-19.89a11.114 11.114 0 01-5.42-1.6v-18.37l1.57-.78a1.173 1.173 0 00.49-.52l6.5-14.13a1.03 1.03 0 00.1-.46v-7.01a4.572 4.572 0 012.17-.6c1.19 0 4.33 2.97 4.33 6.53 0 3.82-2.07 9.34-2.09 9.39a1.084 1.084 0 001.01 1.47h14.91a3.42 3.42 0 013.49 2.96 3.228 3.228 0 01-1.54 3.07 1.113 1.113 0 00-.51.97 1.071 1.071 0 00.59.92 2.7 2.7 0 01-.92 5.09z" transform="translate(-1362 -1862)"/></svg><svg viewBox="0 0 16 22" id="lock" xmlns="http://www.w3.org/2000/svg"><defs><style>.gcls-1{fill:#fee301;fill-rule:evenodd}</style></defs><path class="gcls-1" d="M14.844 9.587h-.314V6.721a6.535 6.535 0 10-13.064 0 .6.6 0 101.195 0 5.339 5.339 0 1110.673 0v2.866H1.156A1.174 1.174 0 000 10.777v7.66A3.519 3.519 0 003.463 22h9.074A3.519 3.519 0 0016 18.436v-7.66a1.174 1.174 0 00-1.156-1.189zm-.04 8.849a2.3 2.3 0 01-2.267 2.333h-9.07A2.3 2.3 0 011.2 18.436v-7.619h13.6v7.619zm-6.8-.251a2.3 2.3 0 10-2.236-2.3A2.272 2.272 0 008 18.186zm0-3.377a1.074 1.074 0 11-1.041 1.076A1.058 1.058 0 018 14.809z"/></svg><svg viewBox="0 0 17 21" id="map" xmlns="http://www.w3.org/2000/svg"><defs><style>.hcls-1{fill:#fee301;fill-rule:evenodd}</style></defs><path id="h_gps_ic" class="hcls-1" d="M1057.5 43a8.3 8.3 0 00-8.5 8.059 7.738 7.738 0 001.83 4.991l6.67 7.95 6.67-7.951a7.738 7.738 0 001.83-4.991 8.3 8.3 0 00-8.5-8.058zm0 11.58a3.633 3.633 0 113.83-3.628 3.739 3.739 0 01-3.83 3.627z" transform="translate(-1049 -43)"/></svg><svg viewBox="0 0 55.97 50" id="muscles" xmlns="http://www.w3.org/2000/svg"><defs><style>.icls-1{fill:#383838;fill-rule:evenodd}</style></defs><path id="i_resuit_arm" class="icls-1" d="M1082.75 1880.19l.41-.01a15.155 15.155 0 0113.4 7.95 12.915 12.915 0 0113.45 1.78 44.161 44.161 0 01.56-5.63 31.616 31.616 0 00.44-4.1h-5.9a3.5 3.5 0 01-2.47-1l-4.66-4.54a14.619 14.619 0 00-.65-6.94 3.42 3.42 0 011.54-2.5l2.83-1.84a8.43 8.43 0 014.61-1.36 12.913 12.913 0 019.08 3.67 48.338 48.338 0 0110.45 14.81c2.97 6.6 4.48 11.47 4.48 14.47a15.576 15.576 0 00.45 4.16 4.988 4.988 0 01-2.46 5.74 56.866 56.866 0 01-27.62 7.15H1099a57.069 57.069 0 01-17.6-2.78l-.82-.27a7.961 7.961 0 01-5.58-7.55v-13.25a8.012 8.012 0 017.75-7.96zm-5.42 21.21a5.68 5.68 0 003.99 5.39l.82.27a54.444 54.444 0 0016.86 2.67h1.69a54.477 54.477 0 0026.46-6.85 2.746 2.746 0 001.38-3.15 17.628 17.628 0 01-.54-4.78c0-2.64-1.48-7.33-4.29-13.55a46.151 46.151 0 00-9.96-14.13 10.583 10.583 0 00-7.43-3 6.05 6.05 0 00-3.31.98l-2.83 1.84a1.122 1.122 0 00-.52.83 1.134 1.134 0 00.34.92l3.72 3.63a1.341 1.341 0 001.51.24 1.289 1.289 0 00.71-.94 1.227 1.227 0 00-.37-1.1l-1.07-1.05a1.129 1.129 0 010-1.61 1.2 1.2 0 011.65 0l1.07 1.05a3.447 3.447 0 011.02 3.08 3.539 3.539 0 01-1.97 2.6 3.7 3.7 0 01-4.2-.67l-2.55-2.48a1.1 1.1 0 00.12 1.44l4.66 4.55a1.2 1.2 0 00.82.33h5.45a1.332 1.332 0 00-.24-.33 1.129 1.129 0 010-1.61 1.2 1.2 0 011.65 0c1.91 1.86 1.44 5 .91 8.64a39.707 39.707 0 00-.57 5.8c0 4.68 3.64 5.68 3.79 5.72a1.125 1.125 0 01.84 1.37 1.156 1.156 0 01-1.13.86 1.333 1.333 0 01-.28-.03 7.548 7.548 0 01-4.84-4.33.236.236 0 01-.05-.05 10.663 10.663 0 00-16.21-1.71 1.2 1.2 0 01-1.65-.01 1.12 1.12 0 01.01-1.61 12.7 12.7 0 011.74-1.38 12.831 12.831 0 00-11.37-6.79l-.34.01a5.7 5.7 0 00-5.49 5.69v13.25z" transform="translate(-1075 -1862)"/></svg><svg id="parking" viewBox="0 0 72 52" xmlns="http://www.w3.org/2000/svg"><defs><style>.jcls-1{fill-rule:evenodd}</style></defs><path id="jForma_1" data-name="Forma 1" class="jcls-1" d="M786.666 870h-13.333a3.2 3.2 0 00-3.333 3.046v12.188a3.2 3.2 0 003.333 3.047h5.556v26.158h-1.334a1.09 1.09 0 00-1.093.832l-1.111 5.529a.956.956 0 00.239.834 1.16 1.16 0 00.854.366h7.111a1.159 1.159 0 00.854-.366.953.953 0 00.239-.834l-1.111-5.529a1.09 1.09 0 00-1.093-.832h-1.333v-26.158h5.555a3.2 3.2 0 003.334-3.047v-12.188a3.2 3.2 0 00-3.334-3.046zm-5.147 46.471l.7 3.5h-4.444l.7-3.5h3.038zm6.259-31.237a1.068 1.068 0 01-1.112 1.015h-13.333a1.068 1.068 0 01-1.111-1.015v-12.188a1.068 1.068 0 011.111-1.015h13.333a1.068 1.068 0 011.112 1.015v12.188zM780 874.355h-2.485a1.067 1.067 0 00-1.112 1.015v7.54a1.116 1.116 0 002.223 0v-1.98H780a3.3 3.3 0 100-6.575zm0 4.543h-1.374v-2.512H780a1.261 1.261 0 110 2.514z" transform="translate(-770 -870)"/><path class="jcls-1" d="M825.741 894.045H823.7a.94.94 0 100 1.88h2.039a.94.94 0 10.002-1.88zm.252 7.768a1.974 1.974 0 00-1.558-.748h-19.87a1.974 1.974 0 00-1.558.748 1.9 1.9 0 00-.36 1.666l.51 2.006a1.968 1.968 0 001.918 1.472h18.85a1.967 1.967 0 001.917-1.472l.51-2.006a1.9 1.9 0 00-.359-1.666zm-1.5 1.21l-.51 2.006a.064.064 0 01-.062.048h-18.85a.064.064 0 01-.062-.048l-.51-2.006a.056.056 0 01.011-.053.059.059 0 01.051-.025h19.87a.058.058 0 01.05.025.057.057 0 01.019.053zm-16.922-20.009H800.3a4.025 4.025 0 00-3.775 2.6l-2.551 6.9a2.985 2.985 0 00-2.958-2.477H790a2.946 2.946 0 100 5.891h1.02a3.019 3.019 0 001.313-.3l-2.186 2.686a4.918 4.918 0 00-1.1 3.093v18.65a1.963 1.963 0 001.97 1.943h3.06a1.963 1.963 0 001.977-1.944v-4.073h36.892v4.073a1.963 1.963 0 001.977 1.944h3.06a1.963 1.963 0 001.977-1.944v-18.65a4.918 4.918 0 00-1.1-3.093l-2.187-2.686a3.023 3.023 0 001.314.3H839a2.946 2.946 0 100-5.891h-1.02a2.985 2.985 0 00-2.958 2.477l-2.551-6.9a4.027 4.027 0 00-3.775-2.6h-7.274m-30.408 11.031H790a1.066 1.066 0 110-2.131h1.02a1.066 1.066 0 11-.003 2.132zm28.457-11.031h-9.949m-15.384 37.042a.064.064 0 01-.064.063h-3.06a.063.063 0 01-.064-.063V915.4a4.049 4.049 0 002.1.587h1.084v4.073zm30.644-5.954h-20.57v-2.068a.063.063 0 01.063-.063h20.443a.063.063 0 01.064.063v2.067zm13.262 5.954a.064.064 0 01-.064.063h-3.06a.063.063 0 01-.064-.063v-4.073h1.084a4.052 4.052 0 002.1-.587v4.66zm-.685-20.568a3.047 3.047 0 01.685 1.919v10.627a2.089 2.089 0 01-2.1 2.068H826.7v-2.068a1.963 1.963 0 00-1.977-1.943h-20.445a1.963 1.963 0 00-1.976 1.943v2.067h-9.245a2.089 2.089 0 01-2.1-2.068v-10.625a3.047 3.047 0 01.685-1.919l2.9-3.563h25.084a.94.94 0 100-1.88h-24.183l2.881-7.79a2.109 2.109 0 011.977-1.361h28.4a2.109 2.109 0 011.977 1.361l2.881 7.79h-3.735a.94.94 0 100 1.88h4.641zm-.459-6.507a1.076 1.076 0 011.084-1.066H839a1.066 1.066 0 110 2.131h-1.02a1.076 1.076 0 01-1.08-1.065zm-39.762 15.105a1.943 1.943 0 101.977 1.943 1.962 1.962 0 00-1.978-1.943zm34.725 0a1.943 1.943 0 101.977 1.943 1.962 1.962 0 00-1.978-1.943zm-35.235-8.023a3.448 3.448 0 103.507 3.448 3.482 3.482 0 00-3.508-3.448zm0 5.014a1.567 1.567 0 111.594-1.567 1.582 1.582 0 01-1.595 1.567zm35.745-5.014a3.448 3.448 0 103.507 3.448 3.482 3.482 0 00-3.508-3.448zm0 5.014a1.567 1.567 0 111.594-1.567 1.582 1.582 0 01-1.595 1.567z" transform="translate(-770 -870)"/></svg><svg viewBox="0 0 49.91 52" id="personal" xmlns="http://www.w3.org/2000/svg"><defs><style>.kcls-1{fill-rule:evenodd}</style></defs><path id="kФігура_25" data-name="Фігура 25" class="kcls-1" d="M1193.01 893.037a6.991 6.991 0 116.99-6.991 7 7 0 01-6.99 6.991zm0-11.984a4.994 4.994 0 104.99 4.993 5 5 0 00-4.99-4.993zm-10.83 7.35c-1.1-.739-2.32-1.667-3.5-2.556a43.044 43.044 0 00-6.16-4.185l1.9-3.415-.03-.01.77-1.459h-10.75L1153.76 870l-1.23 1.578 9.96 6.642 3.07 11.205 1.5-2.007-2.3-8.639h7.22l-1.27 2.267a2.636 2.636 0 00-2.01.319l-.26.23a2 2 0 00-.81 1.538c-.02 1.189.68 3.126 9.24 11.266a1.659 1.659 0 01.61 1.228 2.665 2.665 0 01-1.03 1.6l-.14.12c-2.74 2.916-5.82 6.142-6.94 7.22-9.75-4.783-15.71-6.281-18.2-4.574a2.366 2.366 0 00-1.09 2.038c0 4.684.43 19.974 5.99 19.974 4.88 0 4.89-5.253 4.9-9.9v-.59c3.87 3.386 11.42 9.838 14.8 6.172 3.36-3.625 15.67-15.709 16.85-16.858a1.7 1.7 0 00.66-.859c.48-1.4-.15-4.116-11.1-11.57zm9.13 10.916c-.55.53-13.46 13.183-17 17.008-1.43 1.548-5.58-.669-12.32-6.571-1.51-1.329-1.74-1.528-2.38-1.249l-.59.26-.02.639c-.03.9-.03 1.808-.03 2.7-.01 5.493-.29 7.9-2.9 7.9-2.46 0-3.99-9.328-3.99-18.076a.556.556 0 01.23-.29 2.82 2.82 0 011.58-.339c2.01 0 6.29.928 15.18 5.353.84.409.84.419 8.64-7.88a4.537 4.537 0 001.75-3.006c0-.07.01-.14.01-.21a3.6 3.6 0 00-1.22-2.6c-8.09-7.69-8.64-9.437-8.64-9.727a1.057 1.057 0 01.15-.14.9.9 0 00.1-.09c1.09-.509 5.32 2.7 7.62 4.435 1.2.908 2.43 1.847 3.57 2.626 9.41 6.392 10.26 8.719 10.33 9.188z" transform="translate(-1150.09 -870)"/></svg><svg viewBox="0 0 50 50" id="scales" xmlns="http://www.w3.org/2000/svg"><defs><style>.lcls-1{fill:#383838;fill-rule:evenodd}</style></defs><path id="l_resuit_scales" class="lcls-1" d="M553.454 1862h-40.909a4.549 4.549 0 00-4.545 4.54v40.91a4.551 4.551 0 004.545 4.55h40.909a4.552 4.552 0 004.546-4.55v-40.91a4.55 4.55 0 00-4.546-4.54zm2.273 45.45a2.278 2.278 0 01-2.273 2.28h-40.909a2.277 2.277 0 01-2.272-2.28v-40.91a2.275 2.275 0 012.272-2.27h40.909a2.275 2.275 0 012.273 2.27v40.91zM533 1868.82a20.333 20.333 0 00-14.463 5.99 1.139 1.139 0 000 1.61l6.427 6.42a1.125 1.125 0 001.607 0 9.111 9.111 0 0112.858 0 1.118 1.118 0 001.606 0l6.428-6.42a1.139 1.139 0 000-1.61 20.333 20.333 0 00-14.463-5.99zm7.192 11.65a11.131 11.131 0 00-10.37-2.07l-1.47-3.23a1.136 1.136 0 10-2.068.94l1.423 3.13a11.8 11.8 0 00-1.9 1.23l-4.837-4.83a18.174 18.174 0 0124.057 0z" transform="translate(-508 -1862)"/></svg><svg viewBox="0 0 20.97 21" id="tel" xmlns="http://www.w3.org/2000/svg"><defs><style>.mcls-1{fill:#fee301;fill-rule:evenodd}</style></defs><path id="m_tel_ic" class="mcls-1" d="M1311.97 56.891a1.478 1.478 0 00-2.23 0c-.52.516-1.04 1.032-1.55 1.556a.308.308 0 01-.43.079c-.33-.184-.69-.332-1.02-.533a16.3 16.3 0 01-3.89-3.54 9.507 9.507 0 01-1.39-2.233.315.315 0 01.08-.411c.52-.5 1.03-1.018 1.54-1.534a1.476 1.476 0 00-.01-2.277c-.4-.411-.81-.813-1.22-1.224s-.83-.843-1.25-1.258a1.487 1.487 0 00-2.23 0c-.52.516-1.03 1.044-1.56 1.551a2.533 2.533 0 00-.79 1.708 7.078 7.078 0 00.56 3.116 18.751 18.751 0 003.36 5.6 20.674 20.674 0 006.88 5.388 10 10 0 003.82 1.11 2.8 2.8 0 002.4-.913c.44-.5.94-.953 1.42-1.429a1.49 1.49 0 00.01-2.264c-.83-.831-1.67-1.662-2.5-2.492zm-.84-3.483l1.61-.275a7.226 7.226 0 00-6.12-5.939l-.23 1.621a5.575 5.575 0 014.74 4.594zm2.52-7.009a11.867 11.867 0 00-6.81-3.4l-.23 1.621a10.38 10.38 0 018.78 8.508l1.61-.275a11.922 11.922 0 00-3.35-6.453z" transform="translate(-1296.03 -43)"/></svg><svg id="trx_zal" data-name="Група 2" viewBox="0 0 52 52" xmlns="http://www.w3.org/2000/svg"><defs><style>.ncls-1{fill-rule:evenodd}</style></defs><path id="nФігура_24" data-name="Фігура 24" class="ncls-1" d="M414 904h2v6h-2v-6zm28-20v-8h-14v-6h-23v6h-15v8h2v31h-2v7h52v-7h-2v-31h2zm-35-12h19v13h-19v-13zm21 15v-3h10v8h-44v-8h11v3h23zm10 7v21h-15v-21h15zm-17 0v21h-9v-21h9zm-11 0v21h-16v-21h16zm-18-16h13v4h-13v-4zm48 42h-48v-3h48v3zm-12-38v-4h12v4h-12zm-21.809 16.411l1.618 1.177-8 11-1.618-1.177zm27-1l1.618 1.177-8 11-1.618-1.177zm1 6l1.618 1.177-5 7-1.618-1.175zm-33-5l1.618 1.177-5 7-1.618-1.177z" transform="translate(-390 -870)"/><path id="nTRX" class="ncls-1" d="M413.5 875.007H409v.647h1.869V881h.765v-5.346h1.866v-.647zm4.435 5.993h.824v-.049l-1.369-2.544a1.758 1.758 0 00.819-.621 1.65 1.65 0 00.294-.976 1.685 1.685 0 00-.53-1.342 2.244 2.244 0 00-1.515-.461h-1.93V881h.772v-2.424h1.369zm-2.634-5.346h1.177a1.336 1.336 0 01.93.3 1.1 1.1 0 01.322.853 1.042 1.042 0 01-.338.816 1.3 1.3 0 01-.91.306H415.3v-2.276zm4.939-.647h-.9l1.846 2.972L419.3 881h.9l1.441-2.338 1.437 2.338h.912l-1.885-3.021 1.841-2.972h-.9l-1.4 2.3z" transform="translate(-390 -870)"/></svg></svg>